/* XPM */
static const char * adjust_columns_xpm[] = {
"22 22 4 1",
" 	c None",
".	c #000000",
"+	c #606060",
"@	c #FFFFFF",
"                      ",
"                      ",
"                      ",
"    .   +   +   .     ",
"   .    +   +    .    ",
"  .................   ",
"   .    +   +    .    ",
"    .   +   +   .     ",
"        +   +         ",
"    .............     ",
"    .@@@.@@@.@@@.     ",
"    .@@@.@@@.@@@.     ",
"    .@@@.@@@.@@@.     ",
"    .@@@.@@@.@@@.     ",
"    .@@@.@@@.@@@.     ",
"    .@@@.@@@.@@@.     ",
"    .@@@.@@@.@@@.     ",
"    .@@@.@@@.@@@.     ",
"                      ",
"                      ",
"                      ",
"                      "};
