/* XPM */
static const char *ajqtgui_xpm[]={
"32 32 4 1",
". c None",
"a c #000000",
"# c #c00000",
"b c #c0c000",
"............................###.",
"...........................###..",
"..........................###...",
".........................###....",
".........................##.....",
"........................###.....",
".......................###......",
"......................###.......",
"......................##........",
".....................###........",
"....aaaaaaaaaaaaaaaaaaaa........",
"....aaaaaaaaaaaaaaaaaaaa........",
"....aa.............###aa........",
".....aa...........###aa.........",
".....aa..........###.aa.........",
".....aabbbbbbbbbb##bbaa.........",
".....aabbbbbbbbb##bbbaa.........",
".....aabbbbbbbb###bbbaa.........",
".....aabbbbbbb###bbbbaa.........",
".....aabbbbbb###bbbbbaa.........",
".....aabbbbbb##bbbbbbaa.........",
".....aabbbbb###bbbbbbaa.........",
"......aabbb###bbbbbbaa..........",
"......aabb###bbbbbbbaa..........",
"......aabb##bbbbbbbbaa..........",
"......aab###bbbbbbbbaa..........",
"......aa###bbbbbbbbbaa..........",
"......aa##bbbbbbbbbbaa..........",
"......aa##bbbbbbbbbbaa..........",
"......aa#bbbbbbbbbbbaa..........",
"......aaaaaaaaaaaaaaaa..........",
"......aaaaaaaaaaaaaaaa.........."};
