/* XPM */
static const char *cancel_small_xpm[] = {
/* columns rows colors chars-per-pixel */
"16 16 6 1",
"  c #400000",
". c #800000",
"X c #C00000",
"o c red",
"O c gray100",
"+ c None",
/* pixels */
"++++++++++++++++",
"++++++++++++++++",
"++++++++++++o+++",
"++++oo+++++oXX++",
"+++oXXoo++oXX ++",
"+++++.XXoXXX +++",
"++++++.XXXX ++++",
"+++++++oXXo+++++",
"++++++oXXXo+++++",
"+++++oX +.Xo++++",
"+++++o +++.X++++",
"++++oX+++++.X+++",
"++++o ++++++X+++",
"++++o+++++++++++",
"++++++++++++++++",
"++++++++++++++++"
};
