/* XPM */
static const char *cancel_xpm[] = {
/* columns rows colors chars-per-pixel */
"22 22 5 1",
"  c black",
". c #C00000",
"X c red",
"o c #808080",
"O c None",
/* pixels */
"OOOOOOOOOOOOOOOOOOOOOO",
"OOOOOOOOOOOOOOOOOOOOOO",
"OOOOOOOOOOOOOOOOOOOOOO",
"OOOOOOOOOOOOOOOOOOOOOO",
"OOOOOOOOOOOOOOXOOOOOOO",
"OOOOOXXOOOOOXX..OOOOOO",
"OOOOOX.XXOOX....oOOOOO",
"OOOOX....X.....ooOOOOO",
"OOOOOo.......oooOOOOOO",
"OOOOOOOo....ooOOOOOOOO",
"OOOOOOOOX..XoOOOOOOOOO",
"OOOOOOOX....XOOOOOOOOO",
"OOOOOOX..oo..XOOOOOOOO",
"OOOOOOX.ooOO..oOOOOOOO",
"OOOOOX.ooOOOO..OOOOOOO",
"OOOOOX.oOOOOOO.oOOOOOO",
"OOOOOXooOOOOOOOoOOOOOO",
"OOOOOXoOOOOOOOOOOOOOOO",
"OOOOOOoOOOOOOOOOOOOOOO",
"OOOOOOOOOOOOOOOOOOOOOO",
"OOOOOOOOOOOOOOOOOOOOOO",
"OOOOOOOOOOOOOOOOOOOOOO"
};
