/* XPM */
static const char *clipboard_xpm[] = {
/* columns rows colors chars-per-pixel */
"22 22 30 1",
"  c black",
". c gray20",
"X c #3E3E3E",
"o c #494900",
"O c #4E4E4E",
"+ c #808004",
"@ c #80800D",
"# c #818129",
"$ c #FBFB00",
"% c #FDFD00",
"& c yellow",
"* c #FDFD04",
"= c #F6F611",
"- c #CFCE48",
"; c #CFCE49",
": c #D2D149",
"> c #DBDA4D",
", c #E3E254",
"< c #808080",
"1 c #A0A0A0",
"2 c #A9A9A9",
"3 c #F3F286",
"4 c #FFFFAF",
"5 c #C3C3C3",
"6 c gainsboro",
"7 c #FFFFC3",
"8 c #FFFFDA",
"9 c #FFFFDD",
"0 c gray100",
"q c None",
/* pixels */
"qqqqqqqqqqqqqqqq>qqqqq",
"qqqqqqqqqqqqqqqq=qqqqq",
"qqqqqqqqqqq>qqq & qq >",
"qqqqqqqqqqqo$: >&> -&o",
"qqqqqqqqqqqqq&>484>&@q",
"qqqqqqqqqqqqqo38883#qq",
"qqqqqqqqqqqq <38883+qq",
"qqqqqqqqqqq <&>794>&+q",
"qqqqqqqqqq <&- ,&> -&o",
"qqqqqqqqq 0>51< * qq >",
"qqqqqqqq 0651< q=qqqqq",
"qqqqqqq 0651< qq>qqqqq",
"qqqqqq 0651< qqqqqqqqq",
"qqqqq 2<51< qqqqqqqqqq",
"qqqq 2<OX< qqqqqqqqqqq",
"qqq 2<OX. qqqqqqqqqqqq",
"qq 2<OX. qqqqqqqqqqqqq",
"q 2<OX. qqqqqqqqqqqqqq",
" 2<OX. qqqqqqqqqqqqqqq",
"2<OX. qqqqqqqqqqqqqqqq",
"<OX. qqqqqqqqqqqqqqqqq",
"OX. qqqqqqqqqqqqqqqqqq"
};
