/* XPM */
static const char *close_small_xpm[]={
"16 16 54 1",
". c None",
"Y c #1a1a1a",
"Z c #1f1f1f",
"u c #232323",
"a c #2b2b2b",
"S c #2c2c2c",
"P c #313131",
"N c #343434",
"J c #393939",
"s c #3b3b3b",
"D c #414141",
"h c #4a4a4a",
"g c #4f4f4f",
"f c #525252",
"e c #575757",
"d c #5a5a5a",
"c c #5c5c5c",
"v c #636363",
"b c #656565",
"w c #6b6b6b",
"j c #6f6f6f",
"x c #717171",
"B c #777777",
"y c #797979",
"k c #7c7c7c",
"z c #7f7f7f",
"l c #858585",
"m c #888888",
"n c #8d8d8d",
"o c #919191",
"p c #979797",
"F c #999999",
"q c #9c9c9c",
"# c #a0a0a0",
"L c #a4a4a4",
"C c #a8a8a8",
"O c #ababab",
"M c #b0b0b0",
"A c #b4b4b4",
"R c #bababa",
"r c #bdbdbd",
"U c #c3c3c3",
"X c #c6c6c6",
"V c #c8c8c8",
"E c #cccccc",
"W c #d2d2d2",
"t c #d7d7d7",
"i c #d9d9d9",
"H c #dcdcdc",
"I c #dfdfdf",
"K c #e5e5e5",
"Q c #e7e7e7",
"T c #ebebeb",
"G c #ffffff",
".#abcdeefgghga#.",
"#cijkllmnopqqrs#",
"atuhfevbwxyzlnAa",
"vzhdvbwxBkzmnoCD",
"ckfctExykzitoFCs",
"dlebiGHklIGHF#CJ",
"elvwxHGHIGKpqLMN",
"emvxBkIGGKF##OAP",
"fnwyklIGGQq#CARS",
"goxkzIGKQGTCMUUa",
"gpylHGKpqTGTRVUu",
"hpkmKHF##CTQUWVu",
"gqlnppq#CMRUVHVu",
"aRnoF#LCArVWiGyu",
"#DACCOOARUXXiBY#",
".#uDsJNPSauuZa#."};
