/* XPM */
static const char * connect_small_xpm[] = {
"16 16 82 1",
" 	c None",
".	c #F0F000",
"+	c #EEEE00",
"@	c #D9D900",
"#	c #FFFF00",
"$	c #E0E000",
"%	c #DDDD00",
"&	c #CACA00",
"*	c #A0A000",
"=	c #959500",
"-	c #C7C700",
";	c #CBCB00",
">	c #C2C200",
",	c #BEBE00",
"'	c #9E9E00",
")	c #8F8F00",
"!	c #B5B500",
"~	c #C0C000",
"{	c #B1B100",
"]	c #929200",
"^	c #B9B900",
"/	c #9A9A00",
"(	c #5C5C5C",
"_	c #545354",
":	c #EAEA00",
"<	c #C6C600",
"[	c #ADAD00",
"}	c #A3A300",
"|	c #525452",
"1	c #D6D6D6",
"2	c #D4D1D4",
"3	c #595A59",
"4	c #B9BB00",
"5	c #D1D100",
"6	c #C8C800",
"7	c #919100",
"8	c #8C8C00",
"9	c #1A1E1A",
"0	c #E8E7E8",
"a	c #DEDEDE",
"b	c #DFDFDF",
"c	c #DAD8DA",
"d	c #5F5E5F",
"e	c #656500",
"f	c #808000",
"g	c #111311",
"h	c #AEACAE",
"i	c #D7D7D7",
"j	c #E0DFE0",
"k	c #D7D4D7",
"l	c #595859",
"m	c #0C0C0C",
"n	c #747274",
"o	c #D9D8D9",
"p	c #DEDDDE",
"q	c #C7C6C7",
"r	c #4E4D4E",
"s	c #747374",
"t	c #AAA8AA",
"u	c #ADABAD",
"v	c #9D9B9D",
"w	c #353535",
"x	c #1B1B1B",
"y	c #AFAEAF",
"z	c #A3A0A3",
"A	c #757375",
"B	c #9E9C9E",
"C	c #555455",
"D	c #171717",
"E	c #2C2C2C",
"F	c #B5B4B5",
"G	c #696869",
"H	c #121212",
"I	c #191819",
"J	c #5B5A5B",
"K	c #0A090A",
"L	c #343434",
"M	c #A9A8A9",
"N	c #6C6B6C",
"O	c #000000",
"P	c #BABABA",
"Q	c #6E6D6E",
"            .+@ ",
"        ##$%&*= ",
"        -;>,'   ",
"        )!~{    ",
"         ]^~~   ",
"          /~~~  ",
"    (_   :<~[}} ",
"   |123456/78   ",
"  90abcdef      ",
"  ghiajkl       ",
"  mnhoapqr      ",
"   stuiivw      ",
"  xyzABvCD      ",
" EFGHIJCK       ",
"LMN   OO        ",
"PQ              "};
