/* XPM */
static const char *connected_small_xpm[] = {
/* columns rows colors chars-per-pixel */
"16 16 89 1",
"  c black",
". c #000100",
"X c #000400",
"o c #0A090A",
"O c #0C0C0C",
"+ c gray5",
"@ c gray6",
"# c #101010",
"$ c #111311",
"% c gray7",
"& c #151515",
"* c gray9",
"= c #191819",
"- c #191919",
"; c #1B1B1B",
": c #1A1E1A",
"> c #212021",
", c gray13",
"< c #292829",
"1 c gray16",
"2 c #2C2B2C",
"3 c #2C2C2C",
"4 c gray18",
"5 c #313131",
"6 c #343434",
"7 c #353535",
"8 c #383738",
"9 c #393939",
"0 c #414141",
"q c #434243",
"w c #474647",
"e c #4C4B4C",
"r c gray30",
"t c #4E4D4E",
"y c #4E4F4E",
"u c gray32",
"i c #525452",
"p c #545354",
"a c #555455",
"s c #5B5A5B",
"d c gray36",
"f c #5D5D5D",
"g c #5F5E5F",
"h c #676567",
"j c #696869",
"k c #6C6B6C",
"l c #6E6D6E",
"z c #747274",
"x c #747374",
"c c #757375",
"v c #747474",
"b c #8A888A",
"n c #939193",
"m c #9D9B9D",
"M c #9E9C9E",
"N c #A3A0A3",
"B c #A3A1A3",
"V c #A7A5A7",
"C c #A9A8A9",
"Z c #AAA8AA",
"A c #ABAAAB",
"S c #ADABAD",
"D c #AEACAE",
"F c #AFAEAF",
"G c #B5B4B5",
"H c gray73",
"J c #BDBBBD",
"K c #BFBEBF",
"L c #C3C3C3",
"P c #C7C6C7",
"I c #D1D0D1",
"U c LightGray",
"Y c #D4D1D4",
"T c #D7D4D7",
"R c gray84",
"E c #D7D7D7",
"W c #D9D8D9",
"Q c #DAD8DA",
"! c #DBDADB",
"~ c gainsboro",
"^ c #DDDDDD",
"/ c #DEDDDE",
"( c gray87",
") c #DFDFDF",
"_ c #E0DFE0",
"` c gray88",
"' c #E8E7E8",
"] c #EAEAEA",
"[ c None",
/* pixels */
"[[[[[[[[[[[[[ vJ",
"[[[[[[[[[[[[[3Zl",
"[[[[[[[   [ -Gk&",
"[[[[[[ ud0 5Sh [",
"[[[[[ dR]L9nj@[[",
"[[[[ -B~~`R3+ [[",
"[[[ de1V~~`L0 [[",
"[[XiRYy,K`~!y [[",
"[[:'~_!d,VIm2 [[",
"[[%SW__Wy1bp* [[",
"[[+cSW~~Pwq# [[[",
"[[9cVSWWm7 [[[[[",
"[[-FNcMma* [[[[[",
" 3Gj%-spo [[[[[[",
"7Zl [   [[[[[[[[",
"Hl&[[[[[[[[[[[[["
};
