/* XPM */
static const char *decrease_xpm[] = {
/* columns rows colors chars-per-pixel */
"22 22 131 2",
"   c black",
".  c #010001",
"X  c #020003",
"o  c #020106",
"O  c #020207",
"+  c #040207",
"@  c #02020B",
"#  c #04030A",
"$  c #030810",
"%  c #040913",
"&  c #040A15",
"*  c #040D17",
"=  c #050E1A",
"-  c #050F1C",
";  c #05111D",
":  c #05111E",
">  c #07101C",
",  c #051320",
"<  c #061221",
"1  c #051421",
"2  c #051423",
"3  c #061625",
"4  c #061727",
"5  c #0B1420",
"6  c #0C1521",
"7  c #101924",
"8  c #141D28",
"9  c #1A242E",
"0  c #202833",
"q  c #2B323D",
"w  c #0C3651",
"e  c #0D3D5C",
"r  c #323A44",
"t  c #0F4364",
"y  c #174969",
"u  c #105375",
"i  c #105C7F",
"p  c #3C4650",
"a  c #294B6A",
"s  c #485057",
"d  c #495059",
"f  c #4C525C",
"g  c #5D646B",
"h  c #60666F",
"j  c #646A72",
"k  c #656C73",
"l  c #676C74",
"z  c #686E74",
"x  c #6A7177",
"c  c #6B7077",
"v  c #6D7279",
"b  c #106589",
"n  c #126A92",
"m  c #136B92",
"M  c #156C93",
"N  c #186E94",
"B  c #1C7096",
"V  c #107EA3",
"C  c #2D6284",
"Z  c #337FA1",
"A  c #486789",
"S  c #51718A",
"D  c #0E96BE",
"F  c #1097BE",
"G  c #1297BF",
"H  c #3A83A4",
"J  c #1599C0",
"K  c #1699C0",
"L  c #199AC0",
"P  c #1E9DC2",
"I  c #209DC2",
"U  c #219DC2",
"Y  c #239DC1",
"T  c #229DC2",
"R  c #239EC2",
"E  c #2DA2C5",
"W  c #32A5C6",
"Q  c #35A6C8",
"!  c #3AA8CA",
"~  c #3FA9C8",
"^  c #468AAA",
"/  c #659EB6",
"(  c #6F9AB8",
")  c #76A8BE",
"_  c #44A8C0",
"`  c #56B4D0",
"'  c #5AB6D2",
"]  c #5CB7D1",
"[  c #6ABBD3",
"{  c #7FADC4",
"}  c #73BFD7",
"|  c #70C0D7",
" . c #76C0D7",
".. c #74C1D9",
"X. c #78C3D9",
"o. c #79C3D9",
"O. c #7BC4D8",
"+. c #868A8E",
"@. c #809FBB",
"#. c #9BBFCF",
"$. c #80C6DA",
"%. c #87C9DB",
"&. c #8BCBDF",
"*. c #90CEDF",
"=. c #9BD2E2",
"-. c #9CD2E1",
";. c #9DD3E1",
":. c #9DD3E2",
">. c #ADCAD9",
",. c #BED3DE",
"<. c #BDD4DF",
"1. c #A5D6E3",
"2. c #A6D5E3",
"3. c #A7D6E5",
"4. c #AAD7E4",
"5. c #ABD8E3",
"6. c #B8DFE7",
"7. c #B8DCE8",
"8. c #BADFE9",
"9. c #C7DAE2",
"0. c #CAE4ED",
"q. c #CFE7EF",
"w. c #D1E0E8",
"e. c #D3E1E8",
"r. c #DEE8ED",
"t. c #DFE9EE",
"y. c #DFEFF8",
"u. c #E0E5EA",
"i. c #E9EFF2",
"p. c gray100",
"a. c None",
/* pixels */
"a.a.a.a.a.a.a.a.a.a.a.a.a.a.a.a.a.a.a.a.a.a.",
"a.a.a.a.a.a.a.a.a.a.a.a.a.a.a.a.a.a.a.a.a.a.",
"a.a.a.a.a.a.a.a.a.a.a.a.a.a.a.a.a.a.a.a.a.a.",
"a.a.a.a.a.a.a.a.a.a.a.a.a.a.a.a.a.a.a.a.a.a.",
"a.a.a.a.a.a.a.a.a.a.a.a.a.a.a.a.a.a.a.a.a.a.",
"a.a.a.a.a.a.a.a.a.a.a.a.a.a.a.a.a.a.a.a.a.a.",
"a.a.p.p.p.p.p.p.a.a.a.a.a.a.a.a.a.a.a.a.a.a.",
"a.a.p.r j v z s f g c l h d q 8 6 7 5 a.a.a.",
"a.a.p.k u.u.u.0.9.<.<.>.#.{ / ^ Z S 0 a.a.a.",
"a.a.p.+.i.q.0.8.5.-.:.=.*.o.] Q K n < a.a.a.",
"a.a.p.l e.8.8.4.2.2.2.:.&...` W K n < a.a.a.",
"a.a.p.p { X.%...[ } $.O.| ' ! P D n 2 a.a.a.",
"a.a.a.9 H _ _ E R R U U U L G D D m < a.a.a.",
"a.a.a.: y B N M M n n n n n n n m t * a.a.a.",
"a.a.a.= = = = = = = = : 2 3 3 3 3 : + a.a.a.",
"a.a.a.a.a.a.a.a.a.a.a.a.a.a.a.a.a.a.a.a.a.a.",
"a.a.a.a.a.a.a.a.a.a.a.a.a.a.a.a.a.a.a.a.a.a.",
"a.a.a.a.a.a.a.a.a.a.a.a.a.a.a.a.a.a.a.a.a.a.",
"a.a.a.a.a.a.a.a.a.a.a.a.a.a.a.a.a.a.a.a.a.a.",
"a.a.a.a.a.a.a.a.a.a.a.a.a.a.a.a.a.a.a.a.a.a.",
"a.a.a.a.a.a.a.a.a.a.a.a.a.a.a.a.a.a.a.a.a.a.",
"a.a.a.a.a.a.a.a.a.a.a.a.a.a.a.a.a.a.a.a.a.a."
};
