/* XPM */
static const char *download_small_xpm[]={
"18 18 47 1",
". c None",
"# c #1c1c1c",
"a c #404040",
"N c #424242",
"R c #545454",
"M c #585858",
"F c #606060",
"E c #626262",
"D c #646464",
"B c #666666",
"A c #676767",
"y c #696969",
"l c #69a5a5",
"C c #6b6b6b",
"t c #6d6d6d",
"s c #707070",
"m c #757575",
"j c #777777",
"z c #797979",
"u c #7c7c7c",
"n c #808080",
"P c #838383",
"b c #878787",
"L c #8b8b8b",
"K c #8e8e8e",
"S c #a7a7a7",
"k c #abbbb6",
"Q c #b2b2b2",
"O c #bcbcbc",
"J c #c7c7c7",
"I c #d1d1d1",
"H c #dbdbdb",
"G c #e6e6e6",
"x c #f4e5d8",
"r c #f5e8dc",
"w c #f6e8dd",
"q c #f7ebe1",
"i c #f7ece2",
"h c #f7ede4",
"p c #f8eee6",
"g c #f9f0e8",
"v c #faf2ec",
"o c #faf3ed",
"f c #faf4ee",
"e c #fbf6f1",
"d c #fcf8f5",
"c c #fefdfc",
"..................",
"..##aaaaaaaa##....",
".#baccdefghiaj#...",
".#backllllkiam#...",
".#nacdeogpqras#...",
".#nadkllllkrat#...",
".#uadevgpwrxay#...",
".#zjaaaaaaaaAB#...",
".#jsssstCyBBDE#...",
".#sssaaaaaaaFF#...",
".#ttaGHIJaKLaM#...",
".#tyaHNaOabPaM#...",
".#yBaIaBQauzaR#...",
".#BEaJOQSajjaR#...",
"..###aaaa#####....",
"..................",
"..................",
".................."};
