/* XPM */
static const char * exec_xpm[] = {
"22 22 221 2",
"  	c None",
". 	c #46BEF8",
"+ 	c #4BB7F5",
"@ 	c #40B2F9",
"# 	c #17D0FD",
"$ 	c #24CBFA",
"% 	c #48ACEE",
"& 	c #4EA4EF",
"* 	c #31BAF5",
"= 	c #30B5F2",
"- 	c #55BFF9",
"; 	c #4AC0F9",
"> 	c #4FB9F6",
", 	c #30ABF9",
"' 	c #03D1FF",
") 	c #02DFFF",
"! 	c #0AD5FC",
"~ 	c #18C7F8",
"{ 	c #0BD3FB",
"] 	c #0BD6FC",
"^ 	c #2EA8E9",
"/ 	c #31C2FB",
"( 	c #09D8FE",
"_ 	c #1BCEFC",
": 	c #11D3FD",
"< 	c #03D4FD",
"[ 	c #11ABEE",
"} 	c #1B97E6",
"| 	c #1F92E3",
"1 	c #209AE7",
"2 	c #1DB0F1",
"3 	c #1DB9F4",
"4 	c #2BA5ED",
"5 	c #319AEB",
"6 	c #3193E7",
"7 	c #168EFD",
"8 	c #00B5FF",
"9 	c #00D4FF",
"0 	c #04C9FB",
"a 	c #1C8CE3",
"b 	c #2B7BD7",
"c 	c #2E7AD3",
"d 	c #2F7AD3",
"e 	c #2F7BD3",
"f 	c #3180D7",
"g 	c #358FE1",
"h 	c #2BABF0",
"i 	c #0EC8FB",
"j 	c #10BDF6",
"k 	c #2E81D7",
"l 	c #258BFB",
"m 	c #019FFF",
"n 	c #00CCFF",
"o 	c #12A3EE",
"p 	c #3088DC",
"q 	c #348AD3",
"r 	c #3284CC",
"s 	c #3488D1",
"t 	c #368FD9",
"u 	c #3790DA",
"v 	c #3E98E2",
"w 	c #36ADF1",
"x 	c #16B9F7",
"y 	c #2979CE",
"z 	c #4EB3F6",
"A 	c #3FADF6",
"B 	c #10BAFD",
"C 	c #02C5FD",
"D 	c #1B99EA",
"E 	c #2F7EC0",
"F 	c #3A9AD6",
"G 	c #3FA5E3",
"H 	c #40A7E5",
"I 	c #45AAE9",
"J 	c #37B4F5",
"K 	c #1C9AEA",
"L 	c #47B0F6",
"M 	c #16BBFC",
"N 	c #00C2FF",
"O 	c #02BFFE",
"P 	c #1A96E7",
"Q 	c #48BDEC",
"R 	c #49BFEE",
"S 	c #4DBCF4",
"T 	c #24B7F9",
"U 	c #129FF0",
"V 	c #1C85E5",
"W 	c #41A3F6",
"X 	c #10ACFD",
"Y 	c #00B9FF",
"Z 	c #00BAFF",
"` 	c #00BBFF",
" .	c #179FF0",
"..	c #4CCAEE",
"+.	c #51D4F7",
"@.	c #54D0F8",
"#.	c #36C0FC",
"$.	c #03BCFF",
"%.	c #0AA4F5",
"&.	c #196CCC",
"*.	c #3E9CF5",
"=.	c #0F84FC",
"-.	c #0081FF",
";.	c #0094FF",
">.	c #00B1FF",
",.	c #09ACFA",
"'.	c #2C8DE1",
").	c #57E4FC",
"!.	c #59E2FE",
"~.	c #3EC5FE",
"{.	c #06B2FE",
"].	c #0C87EF",
"^.	c #175CBE",
"/.	c #439FF2",
"(.	c #2790F7",
"_.	c #0C84FC",
":.	c #0483FE",
"<.	c #00A5FF",
"[.	c #01AEFF",
"}.	c #18A1F5",
"|.	c #3D8FDF",
"1.	c #58E6FE",
"2.	c #5BE3FF",
"3.	c #3FC2FF",
"4.	c #07A9FC",
"5.	c #156FD5",
"6.	c #3F8CD5",
"7.	c #2393F3",
"8.	c #029CFE",
"9.	c #00A7FF",
"0.	c #01A7FF",
"a.	c #1BA3F8",
"b.	c #3C9DEB",
"c.	c #5BD1FF",
"d.	c #1FB1FF",
"e.	c #01A5FE",
"f.	c #0C86EC",
"g.	c #1466D4",
"h.	c #2E95ED",
"i.	c #04A0FD",
"j.	c #00A1FF",
"k.	c #00A2FF",
"l.	c #01A1FF",
"m.	c #13A2FB",
"n.	c #39A8F6",
"o.	c #56B3F5",
"p.	c #5EC9FF",
"q.	c #2FB4FF",
"r.	c #04A3FF",
"s.	c #019FFE",
"t.	c #0A7DE8",
"u.	c #16A1F7",
"v.	c #009DFF",
"w.	c #009AFF",
"x.	c #009FFF",
"y.	c #009BFF",
"z.	c #039BFF",
"A.	c #0B9DFE",
"B.	c #1EA5FD",
"C.	c #28AAFE",
"D.	c #1EA7FF",
"E.	c #0C9FFF",
"F.	c #019BFF",
"G.	c #00A6FF",
"H.	c #00A7FE",
"I.	c #0A75E3",
"J.	c #3299EC",
"K.	c #0CB6FA",
"L.	c #00AEFF",
"M.	c #00B4FF",
"N.	c #00B8FF",
"O.	c #00A8FF",
"P.	c #0097FF",
"Q.	c #0096FF",
"R.	c #009CFF",
"S.	c #059EF1",
"T.	c #0D5BC7",
"U.	c #1FA9F1",
"V.	c #06C6FC",
"W.	c #10AFF4",
"X.	c #16A5EE",
"Y.	c #06C3FB",
"Z.	c #01CCFF",
"`.	c #0095FF",
" +	c #038CF8",
".+	c #0D6EDD",
"++	c #0C5DC5",
"@+	c #2498E7",
"#+	c #2874C5",
"$+	c #1F8ADD",
"%+	c #0DB8F3",
"&+	c #00ACFF",
"*+	c #00C4FF",
"=+	c #00DEFF",
"-+	c #00D6FF",
";+	c #00A3FF",
">+	c #0094FE",
",+	c #0B65DB",
"'+	c #1A90E4",
")+	c #0591F8",
"!+	c #0F89E4",
"~+	c #0C9FE8",
"{+	c #01DAFD",
"]+	c #00CBFF",
"^+	c #0498F3",
"/+	c #0A59C7",
"(+	c #198EE4",
"_+	c #00E1FF",
":+	c #01DDFE",
"<+	c #0F89E2",
"[+	c #13479F",
"}+	c #125DC2",
"|+	c #08A3EA",
"1+	c #05ACED",
"2+	c #0A69CE",
"3+	c #1E72DA",
"4+	c #109AE6",
"5+	c #0E9EE8",
"6+	c #1457B8",
"7+	c #0E61CF",
"8+	c #0A51B1",
"            . +                             ",
"          @ # $ % & * =                     ",
"    - ; > , ' ) ! ~ { ] ^                   ",
"    / ( _ : < [ } | 1 2 3 4 5 6             ",
"    7 8 9 0 a b c d e f g h i j k           ",
"    l m n o p q r s t u u v w x y           ",
"  z A B C D E         F G H I J K           ",
"L M N N O P               Q R S T U V       ",
"W X Y Z `  .              ..+.@.#.$.%.&.    ",
"*.=.-.;.>.,.'.              ).!.~.{.].^.    ",
"/.(._.:.<.[.}.|.            1.2.3.4.5.      ",
"    6.7.8.9.0.a.b.            c.d.e.f.g.    ",
"      h.i.j.k.l.m.n.o.      p.q.r.k.s.t.    ",
"      u.v.w.v.x.y.z.A.B.C.D.E.F.y.G.H.I.    ",
"    J.K.L.j.M.N.O.P.Q.Q.Q.Q.Q.Q.R.Y S.T.    ",
"      U.V.W.X.Y.Z.G.`.`.v.k.x.Q. +.+++      ",
"        @+#+  $+%+&+`.Q.*+=+-+;+>+,+        ",
"                '+Y x.)+!+~+{+]+^+/+        ",
"                (+_+:+<+[+}+|+1+2+          ",
"                3+4+5+6+    7+8+            ",
"                                            ",
"                                            "};
