/* XPM */
static const char * exit_xpm[] = {
"22 22 296 2",
"  	c None",
". 	c #80170A",
"+ 	c #7F2316",
"@ 	c #812518",
"# 	c #802418",
"$ 	c #802417",
"% 	c #802316",
"& 	c #7F2215",
"* 	c #7F2214",
"= 	c #7D2013",
"- 	c #81180C",
"; 	c #C23D29",
"> 	c #D17D66",
", 	c #DA9074",
"' 	c #D88B6D",
") 	c #D6896C",
"! 	c #D6896A",
"~ 	c #D78969",
"{ 	c #D7896A",
"] 	c #D68968",
"^ 	c #D68866",
"/ 	c #D58563",
"( 	c #D48361",
"_ 	c #D3825F",
": 	c #D3825E",
"< 	c #D2815D",
"[ 	c #C86949",
"} 	c #BF3721",
"| 	c #CC9177",
"1 	c #C57957",
"2 	c #BC603D",
"3 	c #BB603C",
"4 	c #BC643F",
"5 	c #BE6843",
"6 	c #BC653E",
"7 	c #BA603A",
"8 	c #BA6139",
"9 	c #BC663E",
"0 	c #C06F48",
"a 	c #C3744E",
"b 	c #C2754E",
"c 	c #C37750",
"d 	c #C47952",
"e 	c #C9875E",
"f 	c #C17A57",
"g 	c #BF3521",
"h 	c #B54925",
"i 	c #B95531",
"j 	c #BA5B36",
"k 	c #BA5A33",
"l 	c #B7542A",
"m 	c #C36C48",
"n 	c #D1886A",
"o 	c #D59477",
"p 	c #D18A6A",
"q 	c #C5724B",
"r 	c #BD653B",
"s 	c #C3714A",
"t 	c #C4754E",
"u 	c #C4764F",
"v 	c #C47750",
"w 	c #C56243",
"x 	c #BB5E39",
"y 	c #B95932",
"z 	c #C5714E",
"A 	c #E9C1B0",
"B 	c #F6E8E1",
"C 	c #FFFEFE",
"D 	c #FEFFFF",
"E 	c #FEFDFC",
"F 	c #F4E5DD",
"G 	c #E7BDA8",
"H 	c #C67953",
"I 	c #C3754D",
"J 	c #C67C55",
"K 	c #C67D56",
"L 	c #C68059",
"M 	c #CE7650",
"N 	c #7D1F11",
"O 	c #B95931",
"P 	c #CC7F5E",
"Q 	c #F8EBE5",
"R 	c #FFFFFF",
"S 	c #FFFBF9",
"T 	c #F2DFD6",
"U 	c #E7CBBD",
"V 	c #F4E5DE",
"W 	c #CC8762",
"X 	c #C57B53",
"Y 	c #C7805A",
"Z 	c #C7835D",
"` 	c #CE754F",
" .	c #7E1F11",
"..	c #C87655",
"+.	c #F7E9E3",
"@.	c #F2D9CD",
"#.	c #D28E6F",
"$.	c #C6734D",
"%.	c #C97C58",
"&.	c #C97A54",
"*.	c #D89E81",
"=.	c #F7EBE3",
"-.	c #F3E3D9",
";.	c #CA835D",
">.	c #C7825B",
",.	c #C8875F",
"'.	c #CD724D",
").	c #7E1E11",
"!.	c #BE6742",
"~.	c #B8562D",
"{.	c #EAC9B9",
"].	c #F1D5C9",
"^.	c #C46F48",
"/.	c #BB5F34",
"(.	c #E2B39D",
"_.	c #D59B7F",
":.	c #BD673C",
"<.	c #CF8C68",
"[.	c #F9F0E8",
"}.	c #E5BDA6",
"|.	c #C57E55",
"1.	c #C98A63",
"2.	c #CC714B",
"3.	c #7E1E10",
"4.	c #BB623C",
"5.	c #C97755",
"6.	c #FBEFEB",
"7.	c #FFFDFC",
"8.	c #CD8766",
"9.	c #BD653C",
"0.	c #C27048",
"a.	c #ECC6B3",
"b.	c #DEAD93",
"c.	c #C57A52",
"d.	c #C3754C",
"e.	c #DDA98D",
"f.	c #F4E5DC",
"g.	c #CC8B65",
"h.	c #C88962",
"i.	c #CC704A",
"j.	c #7E1D10",
"k.	c #D78A6A",
"l.	c #B95E37",
"m.	c #D49276",
"n.	c #EDD4C9",
"o.	c #BF663E",
"p.	c #C3744D",
"q.	c #C26F46",
"r.	c #EAC4B1",
"s.	c #DEAC93",
"t.	c #C57951",
"u.	c #C67E58",
"v.	c #CF8D68",
"w.	c #F9EEE8",
"x.	c #FFFAF7",
"y.	c #D79F7F",
"z.	c #C88861",
"A.	c #CC6F4A",
"B.	c #7D1D0F",
"C.	c #D68969",
"D.	c #BA5F36",
"E.	c #D59B82",
"F.	c #EACFC3",
"G.	c #BD6439",
"H.	c #C57750",
"I.	c #EBC5B3",
"J.	c #DEAF95",
"K.	c #C8835C",
"L.	c #CD8B65",
"M.	c #F5E9E2",
"N.	c #FFFCFA",
"O.	c #D9A383",
"P.	c #C98B65",
"Q.	c #CC6C48",
"R.	c #7D1C0F",
"S.	c #D68867",
"T.	c #BB643B",
"U.	c #D5977A",
"V.	c #EDD6CA",
"W.	c #C16C43",
"X.	c #C57852",
"Y.	c #C3734B",
"Z.	c #EBC7B3",
"`.	c #DFB097",
" +	c #C67E57",
".+	c #C8855E",
"++	c #D1926E",
"@+	c #F9EFE9",
"#+	c #FFFAF8",
"$+	c #DAA687",
"%+	c #CB8E6A",
"&+	c #CB6A46",
"*+	c #7D1C0E",
"=+	c #D58664",
"-+	c #BE6A42",
";+	c #CF8664",
">+	c #FDF6F1",
",+	c #D08F6F",
"'+	c #C17047",
")+	c #C67B53",
"!+	c #EDCAB8",
"~+	c #E0B39A",
"{+	c #C9855D",
"]+	c #C58057",
"^+	c #DDAD91",
"/+	c #F5E7DF",
"(+	c #D39977",
"_+	c #CF9673",
":+	c #CA6844",
"<+	c #7D1B0E",
"[+	c #C2744E",
"}+	c #BF683E",
"|+	c #EDD3C7",
"1+	c #F3DACD",
"2+	c #C87D55",
"3+	c #C17147",
"4+	c #E8C3AD",
"5+	c #DCAC91",
"6+	c #C37A4F",
"7+	c #D29976",
"8+	c #F9F0E9",
"9+	c #EDCFBC",
"0+	c #CF936F",
"a+	c #D19B7A",
"b+	c #C96643",
"c+	c #7D1B0D",
"d+	c #C3764F",
"e+	c #C16E46",
"f+	c #CE8967",
"g+	c #FCF2EE",
"h+	c #D29675",
"i+	c #CB8660",
"j+	c #D29572",
"k+	c #CD8B64",
"l+	c #D9A688",
"m+	c #F8EEE7",
"n+	c #F6E8E0",
"o+	c #D59C7B",
"p+	c #D49D7D",
"q+	c #D29B7C",
"r+	c #C86341",
"s+	c #7C1A0D",
"t+	c #C4754F",
"u+	c #C27249",
"v+	c #D99F81",
"w+	c #FDF5F1",
"x+	c #FCF7F4",
"y+	c #F1DED4",
"z+	c #EAD4C6",
"A+	c #F8EEE8",
"B+	c #D9A586",
"C+	c #D29978",
"D+	c #D5A183",
"E+	c #D39E80",
"F+	c #C86240",
"G+	c #7C1A0C",
"H+	c #C4784F",
"I+	c #D19270",
"J+	c #EDD0BF",
"K+	c #FAF1EC",
"L+	c #FEFEFE",
"M+	c #FFFFFE",
"N+	c #F9EFEA",
"O+	c #EED0BE",
"P+	c #D6A07F",
"Q+	c #D29A78",
"R+	c #D49F80",
"S+	c #D7A588",
"T+	c #D39E82",
"U+	c #C45737",
"V+	c #7B1A0D",
"W+	c #C9875D",
"X+	c #C8805A",
"Y+	c #C67F58",
"Z+	c #C67E55",
"`+	c #DDAE92",
" @	c #DEB297",
".@	c #E0B296",
"+@	c #D79F7E",
"@@	c #D39C7C",
"#@	c #DAAE94",
"$@	c #CE9072",
"%@	c #B93D21",
"&@	c #811A0E",
"*@	c #C7835C",
"=@	c #C88760",
"-@	c #C7865F",
";@	c #C7845D",
">@	c #CA8B67",
",@	c #CE9571",
"'@	c #B45032",
")@	c #BB2B16",
"!@	c #CC704B",
"~@	c #CC6D49",
"{@	c #CB6B47",
"]@	c #CA6944",
"                                            ",
"        . + @ # $ $ $ % % % & & * = -       ",
"      ; > , ' ) ! ~ { ] ^ / ( _ : < [ }     ",
"    ; | 1 2 3 4 5 6 7 8 9 0 a b c d e f g   ",
"  . > 1 h i j k l m n o p q r s t u v e w - ",
"  + , 2 i x y z A B C D E F G H I J K L M N ",
"  @ ' 3 j O P Q R S T U V R R F W X Y Z `  .",
"  # ) 4 y ..+.R @.#.$.%.&.*.=.R -.;.>.,.'.).",
"  $ { !.~.{.R ].^./.(.R _.:.<.[.R }.|.1.2.3.",
"  $ { 4.5.6.7.8.9.0.a.R b.c.d.e.R f.g.h.i.j.",
"  $ k.l.m.R n.o.p.q.r.R s.t.u.v.w.x.y.z.A.B.",
"  % C.D.E.R F.G.H.0.I.R J.X K.L.M.N.O.P.Q.R.",
"  % S.T.U.R V.W.X.Y.Z.R `. +.+++@+#+$+%+&+*+",
"  % =+-+;+>+7.,+'+)+!+R ~+{+]+^+R /+(+_+:+<+",
"  & ( [+}+|+R 1+2+3+4+R 5+6+7+8+R 9+0+a+b+c+",
"  & _ d+e+f+g+R @.h+i+j+k+l+m+R n+o+p+q+r+s+",
"  * : c t+u+v+w+R x+y+z+f.N.R A+B+C+D+E+F+G+",
"  = < d u J H+I+J+K+R L+M+N+O+P+Q+R+S+T+U+V+",
"  - [ W+v K X+Y+Z+j+`+ @.@+@0+@@D+S+#@$@%@&@",
"    } f e L *@=@1.-@;@z.>@,@a+q+E+T+$@'@)@  ",
"      g w M ` '.2.!@A.~@{@]@b+r+F+U+%@)@    ",
"        - N  .).3.j.B.R.*+<+c+s+G+V+&@      "};
