/* XPM */
static const char *exit_small_xpm[]={
"16 16 105 2",
"Qt c None",
".h c #9f1005",
"#I c #9f1105",
".a c #a01105",
"#M c #a11703",
"#A c #a21705",
"#l c #a21907",
"#c c #a51f0e",
".2 c #a72312",
".W c #a72413",
".t c #a72718",
".g c #a82b19",
".f c #ac3122",
".e c #ac3422",
".d c #af3526",
".c c #af3829",
".F c #b03f2f",
".b c #b14030",
".u c #b23e18",
".v c #b8532e",
".w c #b95831",
".H c #bb5e37",
".x c #bc5c36",
".y c #bd6038",
".B c #c06b43",
".C c #c26d46",
".4 c #c3714a",
".I c #c46b49",
"#t c #c4724b",
"#. c #c4744d",
".D c #c5764f",
".Z c #c57750",
".j c #c6714c",
".P c #c67953",
".3 c #c77753",
".k c #c77954",
".N c #c77e57",
".l c #c87c54",
".G c #c87c57",
".m c #c87e58",
".o c #c8815a",
".M c #c8825c",
".8 c #c98159",
".V c #c98661",
".n c #ca8158",
"#h c #ca815d",
"#m c #ca875c",
"#B c #ca8963",
".q c #ca8a5f",
".p c #cc855a",
"#C c #cd8863",
".r c #ce8f63",
"#u c #cf8b6a",
"#F c #cf926e",
".O c #cf9469",
"#J c #d09468",
".7 c #d0976d",
"#b c #d19b72",
"#g c #d29d76",
".z c #d39173",
"#j c #d39977",
".E c #d39e72",
"#s c #d4a17d",
".A c #d59376",
"#r c #d59e7f",
"#y c #d5a283",
".s c #d5a677",
"#k c #d79f79",
"#a c #d7a07f",
"#K c #d7a582",
"#z c #d7a685",
".9 c #d8997b",
"#d c #d89b7e",
"#n c #d9a185",
"#G c #d9a88b",
"#E c #daa98d",
"#L c #dbb092",
".R c #dca288",
"#f c #dcac90",
".# c #dd9a92",
".i c #ddb593",
"#v c #e1b59a",
".S c #e2ab93",
".0 c #e5b59e",
"#H c #e5c8ae",
"#p c #e9c0a9",
"## c #ecc5b1",
"#e c #edc7b2",
".Y c #eec6b3",
".1 c #f0cdba",
".X c #f2cfbd",
".L c #f3d0bf",
".J c #f7d4c5",
".Q c #f8d7c8",
"#q c #f9ded0",
"#o c #fadfd1",
"#w c #fce4d5",
"#D c #fde7da",
".5 c #ffefe5",
".T c #fff0e6",
".6 c #fff2e8",
"#i c #fff5ec",
".U c #fffaf3",
"#x c #fffff9",
".K c #ffffff",
"Qt.#.a.b.c.c.d.d.e.f.g.f.e.h.#Qt",
".#.c.i.j.k.l.m.n.o.p.q.q.r.s.t.#",
".h.i.u.v.w.x.y.z.A.B.C.j.D.k.E.a",
".F.G.v.H.I.J.K.K.K.K.L.M.N.l.O.g",
".d.P.w.I.K.K.Q.R.S.T.K.U.V.M.O.W",
".c.l.x.J.K.S.C.X.Y.Z.0.K.1.V.O.2",
".d.N.3.K.Q.C.4.5.6.N.N.6.K.V.7.2",
".d.8.z.K.9.4#..T.T.N.n##.K#a#b#c",
".e.n.A.K#d#..Z.T.T.o.V#e.K#f#g#c",
".f.p#h.K.L.P.k.6.6.V.V#i.K#j#k#l",
".f#m.C.T.K#n.m#o.X.V#p.K#q#r#s#l",
".g.q#t#u.K.K#o#v#v#w.K#x#n#y#z#A",
".d#B.D.l#C#q.K.K.K.K#D#n#r#E#z#l",
".h.s.P.N.M.V#F.S#v#j#r#y#G#H.N#I",
".#.t.E#J.O.O.7#b#g#k#s#K#L.k.h.#",
"Qt.#.a.g.2.2.2#c#c#l#l#A#M.h.#Qt"};
