/* XPM */
static const char *filter_small_xpm[] = {
/* columns rows colors chars-per-pixel */
"16 16 7 1",
"  c black",
". c #585858",
"X c #808080",
"o c #A0A0A0",
"O c #C3C3C3",
"+ c gainsboro",
"@ c None",
/* pixels */
"@@@@@@@@@@@@@@@@",
"@@@@@@@  @@@@@@@",
"@@@@@@ @@ @@@@@@",
"@@@          @@@",
"@@ ++@@ooX... @@",
"@@            @@",
"@@@@ + @ o  @@@@",
"@@@@ + @ oX @@@@",
"@@@@ + @ o  @@@@",
"@@@@ + @ oX @@@@",
"@@@@ + @ o  @@@@",
"@@@@ + @ oX @@@@",
"@@@@ + @ o  @@@@",
"@@@@ + @ oX @@@@",
"@@@@        @@@@",
"@@@@@@@@@@@@@@@@"
};
