/* XPM */
static const char *finished_small_xpm[] = {
/* columns rows colors chars-per-pixel */
"16 16 94 2",
"   c #004100",
".  c #004200",
"X  c #004400",
"o  c #004500",
"O  c #004600",
"+  c #004800",
"@  c #004900",
"#  c #004B00",
"$  c #004C00",
"%  c #004D00",
"&  c #004E00",
"*  c #005000",
"=  c #005100",
"-  c #005300",
";  c #005400",
":  c #005600",
">  c #005B00",
",  c #005C00",
"<  c #005D00",
"1  c #005E00",
"2  c #005F00",
"3  c #006000",
"4  c #006200",
"5  c DarkGreen",
"6  c #006700",
"7  c #006900",
"8  c #006B00",
"9  c #006C00",
"0  c #006D00",
"q  c #006E00",
"w  c #006F00",
"e  c #007300",
"r  c #007400",
"t  c #007600",
"y  c #007700",
"u  c #007800",
"i  c #007900",
"p  c #007B00",
"a  c #017B01",
"s  c #007C00",
"d  c #007D00",
"f  c #007F00",
"g  c #008000",
"h  c #008100",
"j  c #008200",
"k  c #008300",
"l  c #038203",
"z  c #008400",
"x  c #008600",
"c  c #008700",
"v  c #008B00",
"b  c #028902",
"n  c #008C00",
"m  c #008D00",
"M  c #008F00",
"N  c #058F05",
"B  c #009100",
"V  c #019100",
"C  c #009300",
"Z  c #049104",
"A  c #009C00",
"S  c #069800",
"D  c #099B00",
"F  c #089908",
"G  c #00AC00",
"H  c #00AE00",
"J  c #00B100",
"K  c #00B200",
"L  c #06B106",
"P  c #00BE00",
"I  c #0BBE0B",
"U  c #10A010",
"Y  c #19A719",
"T  c #18B918",
"R  c #1FBD1F",
"E  c #01C001",
"W  c #00CA00",
"Q  c #00CF00",
"!  c #00D300",
"~  c #00D500",
"^  c #00DA00",
"/  c #00DB00",
"(  c #00DD00",
")  c #1BCE1B",
"_  c #00E000",
"`  c #00E900",
"'  c #00EE00",
"]  c #08ED08",
"[  c #00F100",
"{  c #00F300",
"}  c #00FE00",
"|  c #0AF50A",
" . c gray100",
".. c None",
/* pixels */
"................................",
"................................",
"M ........................M S D ",
"M c ..................g v M M M ",
"c N a ............t b F Y c c ..",
"a T F 0 ......0 t N ) R g a ....",
"8 H ] b 6 6 6 c P | I r a ......",
"4 c { ( a r J ` } H 4 8 ........",
"..2 Q ' ~ ~ ' ` M 2 4 ..........",
"..* A ( ^ ( ! g * ..............",
"..$ 0 W Q P 0 # ................",
"....$ J G 4   ..................",
"....# a 2   ....................",
"....O O O ......................",
"................................",
"................................"
};
