/* XPM */
static const char * ftp_small_xpm[] = {
"18 18 143 2",
"  	c None",
". 	c #585858",
"+ 	c #DEDEDE",
"@ 	c #BCB7B1",
"# 	c #999999",
"$ 	c #92AE84",
"% 	c #92BCC5",
"& 	c #96BED6",
"* 	c #C1D6D5",
"= 	c #FFFFFF",
"- 	c #EAEAEA",
"; 	c #6D6D6D",
"> 	c #C4D0B9",
", 	c #5BA584",
"' 	c #69C59A",
") 	c #60E2C4",
"! 	c #21D3AD",
"~ 	c #039D5E",
"{ 	c #187D53",
"] 	c #ABB6AF",
"^ 	c #FCFCFC",
"/ 	c #707070",
"( 	c #CECECE",
"_ 	c #303030",
": 	c #7CD2EA",
"< 	c #C4F682",
"[ 	c #9BDA60",
"} 	c #5DB631",
"| 	c #16A441",
"1 	c #089A5B",
"2 	c #059262",
"3 	c #3E7849",
"4 	c #A0A5A4",
"5 	c #898989",
"6 	c #6B6B6B",
"7 	c #424242",
"8 	c #7AC1D5",
"9 	c #CFED70",
"0 	c #99C084",
"a 	c #80B43B",
"b 	c #6CBF4E",
"c 	c #1FA743",
"d 	c #089C5A",
"e 	c #049262",
"f 	c #478855",
"g 	c #4A5A50",
"h 	c #CBCBCB",
"i 	c #E2E0DE",
"j 	c #8F8984",
"k 	c #B2C8D2",
"l 	c #9ADEAB",
"m 	c #B5D60E",
"n 	c #AFDE5E",
"o 	c #9EE08C",
"p 	c #57B030",
"q 	c #189E4B",
"r 	c #059656",
"s 	c #049260",
"t 	c #4D8552",
"u 	c #4C5B4C",
"v 	c #7E8386",
"w 	c #F4F0EC",
"x 	c #E7E0D9",
"y 	c #BEB6AF",
"z 	c #4F85AE",
"A 	c #85D54F",
"B 	c #84C12E",
"C 	c #7CBD30",
"D 	c #62AC42",
"E 	c #4BB570",
"F 	c #27A67F",
"G 	c #32B4CA",
"H 	c #0A8151",
"I 	c #357880",
"J 	c #5C726F",
"K 	c #565A58",
"L 	c #F3EDE3",
"M 	c #EEE7DC",
"N 	c #BCAE97",
"O 	c #477698",
"P 	c #60C2B0",
"Q 	c #5AAE4D",
"R 	c #53B13B",
"S 	c #32AA3B",
"T 	c #22AC70",
"U 	c #42BDCF",
"V 	c #38CDFF",
"W 	c #2C909A",
"X 	c #1686BB",
"Y 	c #688993",
"Z 	c #505554",
"` 	c #F3EBDC",
" .	c #ECE2D4",
"..	c #4C6982",
"+.	c #46CCF0",
"@.	c #4ECBC3",
"#.	c #0CA243",
"$.	c #06A051",
"%.	c #1A957C",
"&.	c #3BD0FE",
"*.	c #29B6F4",
"=.	c #0E91D0",
"-.	c #3D8DB8",
";.	c #56707E",
">.	c #5A5C5A",
",.	c #F1E6D4",
"'.	c #ECDFCA",
").	c #BCAB90",
"!.	c #000000",
"~.	c #12293F",
"{.	c #284465",
"].	c #2C4A69",
"^.	c #264866",
"/.	c #504826",
"(.	c #4D4629",
"_.	c #322C1F",
":.	c #0E1A2A",
"<.	c #101419",
"[.	c #2C2C31",
"}.	c #ADA69A",
"|.	c #EEE0CA",
"1.	c #ECDBC2",
"2.	c #BCA88A",
"3.	c #054205",
"4.	c #9CCE9C",
"5.	c #6AB56A",
"6.	c #399C39",
"7.	c #2E4A27",
"8.	c #ECDCC1",
"9.	c #E9D6BA",
"0.	c #BCA685",
"a.	c #0A840A",
"b.	c #097A09",
"c.	c #344F2A",
"d.	c #E7D1B0",
"e.	c #BCA37F",
"f.	c #746858",
"g.	c #E5CCA7",
"h.	c #BCA178",
"i.	c #726757",
"j.	c #BEA57F",
"k.	c #BDA076",
"l.	c #BC9E73",
"        . . . . . . . . .           ",
"        . + + + + + @ . # .         ",
"        $ % & * = = - ; = # .       ",
"    > , ' ) ! ~ { ] ^ / ( = # _     ",
"    : < [ } | 1 2 3 4 5 / 6 7 _     ",
"  8 9 0 a b c d e f g h i @ j _     ",
"k l m n o p q r s t u v w x y _     ",
"z A B C D E F G H I J K L M N _     ",
"O P Q R S T U V W X Y Z `  .N _     ",
"..+.@.#.$.%.&.*.=.-.;.>.,.'.)._     ",
"!.~.{.].^./.(._.:.<.[.}.|.1.2._     ",
"3.4.4.5.4.4.4.6.4.4.6.7.8.9.0._     ",
"3.4.4.a.a.4.a.a.4.4.a.b.c.d.e._     ",
"3.4.b.b.b.4.b.b.4.b.b.3.f.g.h._     ",
"3.3.3.3.3.3.3.3.3.3.3.i.j.k.l._     ",
"        . _ _ _ _ _ _ _ _ _ _ _     ",
"                                    ",
"                                    "};
