/* XPM */
static const char *increase_xpm[] = {
/* columns rows colors chars-per-pixel */
"22 22 161 2",
"   c black",
".  c #020207",
"X  c #040D17",
"o  c #050E1A",
"O  c #05111E",
"+  c #07101C",
"@  c #06121F",
"#  c #051320",
"$  c #061221",
"%  c #051421",
"&  c #081421",
"*  c #0B1420",
"=  c #0C1521",
"-  c #0C1825",
";  c #121E2A",
":  c #151E2A",
">  c #161F2A",
",  c #18212D",
"<  c #19222D",
"1  c #1A232D",
"2  c #182837",
"3  c #202833",
"4  c #22303D",
"5  c #28323D",
"6  c #0F4364",
"7  c #124566",
"8  c #3A444F",
"9  c #3E4751",
"0  c #3F4853",
"q  c #3A657F",
"w  c #474D56",
"e  c #464E55",
"r  c #465059",
"t  c #626971",
"y  c #676E75",
"u  c #6D747C",
"i  c #70767B",
"p  c #126A92",
"a  c #166C94",
"s  c #1B6F96",
"d  c #1D7197",
"f  c #1E7197",
"g  c #27779B",
"h  c #2D7A9D",
"j  c #347FA1",
"k  c #486F89",
"l  c #496F88",
"z  c #587C91",
"x  c #737880",
"c  c #757B83",
"v  c #767D83",
"b  c #777F84",
"n  c #797E83",
"m  c #0E96BE",
"M  c #0F96BE",
"N  c #1097BE",
"B  c #1398BF",
"V  c #1498BF",
"C  c #3980A3",
"Z  c #3A82A3",
"A  c #3E85A4",
"S  c #3F86A6",
"D  c #1699C0",
"F  c #199AC1",
"G  c #1B9BC1",
"H  c #1F9CC1",
"J  c #27A0C4",
"K  c #2AA1C5",
"L  c #2CA2C5",
"P  c #2DA2C5",
"I  c #2EA4C6",
"U  c #3DA9C9",
"Y  c #3DAACA",
"T  c #3EABCA",
"R  c #4D8CAA",
"E  c #4E8FAC",
"W  c #5B97B3",
"Q  c #7C8086",
"!  c #7D8288",
"~  c #7F9AAA",
"^  c #41AACB",
"/  c #51B3CF",
"(  c #56B3CE",
")  c #52B4D0",
"_  c #58B5D1",
"`  c #61B9D1",
"'  c #60B8D2",
"]  c #6ABDD5",
"[  c #6BBCD4",
"{  c #6BBDD6",
"}  c #6DBCD3",
"|  c #6CBED5",
" . c #6EBDD4",
".. c #6EBFD7",
"X. c #70BFD5",
"o. c #71BED5",
"O. c #72BFD5",
"+. c #75C0D7",
"@. c #76C0D5",
"#. c #78C1D7",
"$. c #79C2D7",
"%. c #7CC2D6",
"&. c #7CC3D6",
"*. c #7FC2D8",
"=. c #81858B",
"-. c #80878E",
";. c #8D9296",
":. c #93999E",
">. c #AEAFB5",
",. c #86B1C6",
"<. c #95BCCB",
"1. c #83C7DB",
"2. c #84C7D9",
"3. c #88C7DB",
"4. c #8AC9DB",
"5. c #8ACADB",
"6. c #89CADD",
"7. c #8DCCDE",
"8. c #91CCDD",
"9. c #94CBDC",
"0. c #94CDDF",
"q. c #9ACFDD",
"w. c #9ACFDF",
"e. c #9DD0DD",
"r. c #99D1E1",
"t. c #A5C2D2",
"y. c #A5C5D5",
"u. c #ACC9D6",
"i. c #B3C2CB",
"p. c #B3C3CB",
"a. c #B6C4CE",
"s. c #B1CCD4",
"d. c #B3CED9",
"f. c #B5D0DB",
"g. c #B8D0DB",
"h. c #B9D2DD",
"j. c #BCD5DE",
"k. c #A3D4E2",
"l. c #A9D7E4",
"z. c #ACD6E4",
"x. c #ACD7E5",
"c. c #AFD8E6",
"v. c #B6DBE6",
"b. c #BADEE3",
"n. c #B9DCE6",
"m. c #BADEE7",
"M. c #BFDFE7",
"N. c #C3D7E2",
"B. c #C7D9E2",
"V. c #CADBE2",
"C. c #CBDAE2",
"Z. c #CCDCE3",
"A. c #C3E0E7",
"S. c #C3E1EB",
"D. c #C7E3EB",
"F. c #C8E4E9",
"G. c #CDE5ED",
"H. c #D4E9F1",
"J. c #D8EBF0",
"K. c gray100",
"L. c None",
/* pixels */
"L.L.L.L.L.L.L.L.L.L.L.L.L.L.L.L.L.L.L.L.L.L.",
"L.L.L.L.L.L.L.L.L.L.L.L.L.L.L.L.L.L.L.L.L.L.",
"L.L.L.L.L.L.L.r Q b v -.y 9 ; L.L.L.L.L.L.L.",
"L.L.L.L.L.L.L.t p.s.u.j.y.~ 8 L.L.L.L.L.L.L.",
"L.L.L.L.L.L.L.u y.m.B.F.x.,.0 L.L.L.L.L.L.L.",
"L.L.L.L.L.L.L.! s.D.v.x.*.W 5 L.L.L.L.L.L.L.",
"L.L.K.K.K.K.K.=.f.M.x.9.[ A - L.L.L.L.L.L.L.",
"L.L.K.w Q ;.:.>.h.l.5.5.$.E : = + o = L.L.L.",
"L.L.K.x a.C.C.N.p.e.&.2.O.l f s a 6 2 L.L.L.",
"L.L.K.c C.J.G.n.e.+.| +.` P V V M p @ L.L.L.",
"L.L.K.n C.H.M.w.8.$.o.| [ Y V M M p # L.L.L.",
"L.L.K.i h.M.k.9.r.4.+.[ .._ P N M p # L.L.L.",
"L.L.L.w <.q.} O.7.2._ T ) ( U S G p # L.L.L.",
"L.L.L., l R j j R _ ^ H I g S C g 7 o L.L.L.",
"L.L.L.@ 3 1 > 1 h V G m m d 4 4 2 @ . L.L.L.",
"L.L.L.L.L.L.L.X a V m m m p @ L.L.L.L.L.L.L.",
"L.L.L.L.L.L.L.@ p M m m m p @ L.L.L.L.L.L.L.",
"L.L.L.L.L.L.L.@ p M m m m p @ L.L.L.L.L.L.L.",
"L.L.L.L.L.L.L.@ 6 p p p p 6 O L.L.L.L.L.L.L.",
"L.L.L.L.L.L.L.@ o @ @ @ O O O L.L.L.L.L.L.L.",
"L.L.L.L.L.L.L.L.L.L.L.L.L.L.L.L.L.L.L.L.L.L.",
"L.L.L.L.L.L.L.L.L.L.L.L.L.L.L.L.L.L.L.L.L.L."
};
