/* XPM */
static const char * info_small_xpm[] = {
"18 18 159 2",
"  	c None",
". 	c #499142",
"+ 	c #1F7D1F",
"@ 	c #257598",
"# 	c #1C7DA6",
"$ 	c #1578AA",
"% 	c #0F7491",
"& 	c #0A7064",
"* 	c #214A5B",
"= 	c #447A3E",
"- 	c #509843",
"; 	c #6DCABD",
"> 	c #61CCC5",
", 	c #55D8F1",
"' 	c #25F8BC",
") 	c #07F698",
"! 	c #06C17A",
"~ 	c #02753A",
"{ 	c #134B45",
"] 	c #4D8388",
"^ 	c #78CDCE",
"/ 	c #99EAFD",
"( 	c #AFFF93",
"_ 	c #9AFF57",
": 	c #5DFF58",
"< 	c #08F267",
"[ 	c #08B969",
"} 	c #089665",
"| 	c #089968",
"1 	c #197640",
"2 	c #1A3129",
"3 	c #53818D",
"4 	c #71C1D4",
"5 	c #FFFF0E",
"6 	c #EEFF36",
"7 	c #B8FF3F",
"8 	c #74C439",
"9 	c #4DA939",
"0 	c #0CA843",
"a 	c #089C59",
"b 	c #089763",
"c 	c #089364",
"d 	c #169056",
"e 	c #3B4E30",
"f 	c #0F3144",
"g 	c #4FA0B8",
"h 	c #FCFC16",
"i 	c #B9EEF9",
"j 	c #617B17",
"k 	c #628C25",
"l 	c #7FC581",
"m 	c #55B83E",
"n 	c #0FA741",
"o 	c #089E57",
"p 	c #089764",
"q 	c #089263",
"r 	c #128D56",
"s 	c #698054",
"t 	c #152524",
"u 	c #102B3A",
"v 	c #4D7F90",
"w 	c #DBDB27",
"x 	c #FFFF08",
"y 	c #C0EFBE",
"z 	c #CCFCFF",
"A 	c #A9E9A8",
"B 	c #73C539",
"C 	c #4AAB3C",
"D 	c #09963F",
"E 	c #089A55",
"F 	c #089563",
"G 	c #198B54",
"H 	c #60774D",
"I 	c #2E2D21",
"J 	c #0B2231",
"K 	c #55A355",
"L 	c #E4F62A",
"M 	c #B1E324",
"N 	c #B2EB2B",
"O 	c #C5FF3F",
"P 	c #9CF062",
"Q 	c #65B83C",
"R 	c #44A661",
"S 	c #29896E",
"T 	c #08623C",
"U 	c #08734E",
"V 	c #086D4B",
"W 	c #226D40",
"X 	c #596743",
"Y 	c #2A4546",
"Z 	c #041E31",
"` 	c #43A50F",
" .	c #A0EF39",
"..	c #87C22F",
"+.	c #81C230",
"@.	c #75BA36",
"#.	c #569148",
"$.	c #7ED0BC",
"%.	c #119E3A",
"&.	c #0D5C39",
"*.	c #5EDBFF",
"=.	c #239497",
"-.	c #085035",
";.	c #267785",
">.	c #3E5E56",
",.	c #323B35",
"'.	c #07131A",
").	c #13430E",
"!.	c #4D842A",
"~.	c #69A931",
"{.	c #6CB939",
"].	c #63B83B",
"^.	c #55A939",
"/.	c #65D8C0",
"(.	c #585858",
"_.	c #277C9D",
":.	c #4CA5AB",
"<.	c #459434",
"[.	c #4CA839",
"}.	c #39AE3C",
"|.	c #19AF41",
"1.	c #089040",
"2.	c #EAEAEA",
"3.	c #000000",
"4.	c #2A7891",
"5.	c #3BB2DD",
"6.	c #26AC80",
"7.	c #0B973C",
"8.	c #08A448",
"9.	c #088143",
"0.	c #085332",
"a.	c #FFFFFF",
"b.	c #1783B9",
"c.	c #41CCEE",
"d.	c #089E5A",
"e.	c #089C5D",
"f.	c #08754C",
"g.	c #2D95A7",
"h.	c #E5C9A0",
"i.	c #8D7C62",
"j.	c #226586",
"k.	c #2193D2",
"l.	c #08AA71",
"m.	c #089565",
"n.	c #085E41",
"o.	c #1D9192",
"p.	c #5F5342",
"q.	c #165A81",
"r.	c #056943",
"s.	c #085C3F",
"t.	c #084B31",
"u.	c #2CA8DB",
"v.	c #124866",
"w.	c #0B190D",
"x.	c #11546A",
"y.	c #0E79AE",
"z.	c #113D50",
"A.	c #073D58",
"B.	c #033153",
"        . + @ # $ % & *             ",
"      = - ; > , ' ) ! ~ {           ",
"    ] ^ / ( _ : < [ } | 1 2         ",
"  3 4 5 6 7 8 9 0 a b c d e f       ",
"  g h i j k l m n o p q r s t u     ",
"v w x y z A B C D E F c G H I J     ",
"K L M N O P Q R S T U V W X Y Z     ",
"`  ...+.@.#.$.%.&.*.=.-.;.>.,.'.    ",
").!.~.{.].^./.(.(.(.(.(.(.(.(.(.(.(.",
"_.:.<.[.}.|.1.(.2.2.2.2.2.2.2.2.2.3.",
"4.5.6.7.8.9.0.(.2.a.3.a.a.a.a.a.2.3.",
"  b.c.d.e.f.g.(.2.a.3.3.a.h.i.a.2.3.",
"  j.k.l.m.n.o.(.2.a.3.a.a.i.p.a.2.3.",
"    q.r.s.t.u.(.2.a.3.a.a.a.a.a.2.3.",
"      v.w.x.y.(.2.a.3.3.a.h.i.a.2.3.",
"        z.A.B.(.2.a.a.a.a.i.p.a.2.3.",
"              (.2.2.2.2.2.2.2.2.2.3.",
"              (.3.3.3.3.3.3.3.3.3.3."};
