/* XPM */
static const char * info_xpm[] = {
"24 24 286 2",
"  	c None",
". 	c #51A84A",
"+ 	c #3A904D",
"@ 	c #2D8988",
"# 	c #3299BF",
"$ 	c #2F95BA",
"% 	c #2D8BB7",
"& 	c #36859F",
"* 	c #65953D",
"= 	c #43852F",
"- 	c #549850",
"; 	c #6BCBD1",
"> 	c #5DE8F2",
", 	c #4EDCFF",
"' 	c #38D9E3",
") 	c #30D3DA",
"! 	c #0ABB73",
"~ 	c #07965E",
"{ 	c #0C764E",
"] 	c #176446",
"^ 	c #599967",
"/ 	c #71D4E8",
"( 	c #82DAEB",
"_ 	c #86E2CB",
": 	c #89E286",
"< 	c #69CC4D",
"[ 	c #5EDC96",
"} 	c #15CA5D",
"| 	c #0CBF73",
"1 	c #089E56",
"2 	c #0A975F",
"3 	c #099463",
"4 	c #058750",
"5 	c #215F40",
"6 	c #495A46",
"7 	c #69B2CC",
"8 	c #8BE3FD",
"9 	c #B6F5AA",
"0 	c #A0E3BD",
"a 	c #94DA89",
"b 	c #82C87C",
"c 	c #62BA35",
"d 	c #4DB538",
"e 	c #21A73F",
"f 	c #0AA24A",
"g 	c #0B9B5B",
"h 	c #0B985F",
"i 	c #0A9362",
"j 	c #079260",
"k 	c #328B4F",
"l 	c #3A583B",
"m 	c #43493E",
"n 	c #6AB6C7",
"o 	c #89E2FF",
"p 	c #AAF3EC",
"q 	c #E4FD41",
"r 	c #CDEE26",
"s 	c #AFE62E",
"t 	c #98DB3B",
"u 	c #6DBA34",
"v 	c #53B33D",
"w 	c #2BA940",
"x 	c #0BA54B",
"y 	c #099F57",
"z 	c #0B995E",
"A 	c #0A9461",
"B 	c #079261",
"C 	c #2B8A54",
"D 	c #578050",
"E 	c #2D4333",
"F 	c #7EACB8",
"G 	c #7FD5EE",
"H 	c #BAF2AF",
"I 	c #C7D000",
"J 	c #8EB66D",
"K 	c #73992F",
"L 	c #89BC25",
"M 	c #6D9F4E",
"N 	c #5F9B47",
"O 	c #54B33B",
"P 	c #36AC3E",
"Q 	c #0BA24F",
"R 	c #09A055",
"S 	c #0B9960",
"T 	c #0A9561",
"U 	c #07905E",
"V 	c #228955",
"W 	c #5B8655",
"X 	c #495B4C",
"Y 	c #08242B",
"Z 	c #63B6D6",
"` 	c #A0F1FF",
" .	c #DFFD82",
"..	c #D4EA57",
"+.	c #C9FADA",
"@.	c #9CD0B0",
"#.	c #8ABE40",
"$.	c #89CB55",
"%.	c #99ED67",
"&.	c #5EBF3E",
"*.	c #2EA93F",
"=.	c #0BA54C",
"-.	c #099F55",
";.	c #0B995F",
">.	c #07905F",
",.	c #208C56",
"'.	c #5B8355",
").	c #6B785E",
"!.	c #3C453F",
"~.	c #272D28",
"{.	c #76D1E6",
"].	c #D5FD8D",
"^.	c #CBE60D",
"/.	c #B4D809",
"(.	c #A7CE35",
"_.	c #CBFDFC",
":.	c #B3EAD8",
"<.	c #97D495",
"[.	c #68BE35",
"}.	c #52B139",
"|.	c #28AA3F",
"1.	c #09A350",
"2.	c #0B9F58",
"3.	c #0B9A5F",
"4.	c #078F5E",
"5.	c #2B8749",
"6.	c #5C8251",
"7.	c #6A7A57",
"8.	c #41473A",
"9.	c #0F212B",
"0.	c #68A0B3",
"a.	c #9AECD1",
"b.	c #AFE135",
"c.	c #A1CC18",
"d.	c #9FCD21",
"e.	c #98C91D",
"f.	c #AEE244",
"g.	c #9CDF50",
"h.	c #82D252",
"i.	c #5EB637",
"j.	c #4AA031",
"k.	c #2E9A64",
"l.	c #0C904B",
"m.	c #098C4B",
"n.	c #0A9155",
"o.	c #09945F",
"p.	c #06905E",
"q.	c #358653",
"r.	c #5D7F53",
"s.	c #677254",
"t.	c #305763",
"u.	c #193137",
"v.	c #59A3BC",
"w.	c #A0F172",
"x.	c #88C728",
"y.	c #8AC42B",
"z.	c #91C62A",
"A.	c #85C22C",
"B.	c #7FBE2E",
"C.	c #71B930",
"D.	c #5F9E5F",
"E.	c #5CAE80",
"F.	c #31A736",
"G.	c #3FC8A1",
"H.	c #3BB7B1",
"I.	c #2BA1B8",
"J.	c #188989",
"K.	c #078B53",
"L.	c #068C51",
"M.	c #2C6A59",
"N.	c #4D7052",
"O.	c #717861",
"P.	c #376E89",
"Q.	c #243235",
"R.	c #4BA5C6",
"S.	c #7BD242",
"T.	c #77BB2E",
"U.	c #78BE33",
"V.	c #78BD33",
"W.	c #77BC34",
"X.	c #6DB937",
"Y.	c #62B838",
"Z.	c #57AB4F",
"`.	c #559099",
" +	c #0D7024",
".+	c #006B2A",
"++	c #0F5339",
"@+	c #2B8CA6",
"#+	c #2788AB",
"$+	c #0E5E53",
"%+	c #0C4C29",
"&+	c #126180",
"*+	c #1E545C",
"=+	c #4B4A3D",
"-+	c #3F4B49",
";+	c #091E2A",
">+	c #000000",
",+	c #46A0BC",
"'+	c #5EB695",
")+	c #529522",
"!+	c #61AC2E",
"~+	c #64B836",
"{+	c #62B73A",
"]+	c #5BB23B",
"^+	c #52AF3B",
"/+	c #38A938",
"(+	c #2A734B",
"_+	c #EAEAEA",
":+	c #439CBC",
"<+	c #68DFFF",
"[+	c #6FCEE5",
"}+	c #62B29A",
"|+	c #47A335",
"1+	c #47AF3C",
"2+	c #3DAA3D",
"3+	c #2EAB40",
"4+	c #15A745",
"5+	c #076F37",
"6+	c #FFFFFF",
"7+	c #4090B7",
"8+	c #51D7FD",
"9+	c #66DFFF",
"0+	c #68D9F7",
"a+	c #30AE61",
"b+	c #1DA740",
"c+	c #17A745",
"d+	c #0BA44C",
"e+	c #08A251",
"f+	c #056432",
"g+	c #525252",
"h+	c #484848",
"i+	c #3ABBE7",
"j+	c #52DDFF",
"k+	c #5ADCFF",
"l+	c #27B69B",
"m+	c #06A048",
"n+	c #08A152",
"o+	c #0A9955",
"p+	c #0C553D",
"q+	c #F3EAE0",
"r+	c #27A0CD",
"s+	c #3FD8FF",
"t+	c #47D8FF",
"u+	c #43CDEA",
"v+	c #069B4C",
"w+	c #0A995F",
"x+	c #0A9558",
"y+	c #166667",
"z+	c #E5C9A0",
"A+	c #2B769B",
"B+	c #2FB5E8",
"C+	c #3BD2FF",
"D+	c #35C9EC",
"E+	c #07984C",
"F+	c #099562",
"G+	c #078E56",
"H+	c #0E5A4F",
"I+	c #237CA8",
"J+	c #2ABAFA",
"K+	c #2FBDFC",
"L+	c #0C8857",
"M+	c #08925F",
"N+	c #08935E",
"O+	c #127D5E",
"P+	c #1C7088",
"Q+	c #177DAE",
"R+	c #1FAAEC",
"S+	c #20A0C4",
"T+	c #0E874C",
"U+	c #137F4B",
"V+	c #217F7D",
"W+	c #1B709A",
"X+	c #146189",
"Y+	c #1990CF",
"Z+	c #257C7B",
"`+	c #287178",
" @	c #188CBE",
".@	c #0E618C",
"+@	c #084367",
"@@	c #085886",
"#@	c #0974AB",
"$@	c #087BB7",
"%@	c #0A5174",
"&@	c #0E2D3F",
"*@	c #0D415F",
"=@	c #06283E",
"              . + @ # $ % &                     ",
"          * = - ; > , ' ) ! ~ { ]               ",
"        ^ / ( _ : < [ } | 1 2 3 4 5 6           ",
"      7 8 9 0 a b c d e f g h i j k l m         ",
"    n o p q r s t u v w x y z A B C D E         ",
"  F G H I J K L M N O P Q R S T U V W X Y       ",
"  Z `  ...+.@.#.$.%.&.*.=.-.;.T >.,.'.).!.~.    ",
"  {.].^./.(._.:.<.[.}.|.1.2.3.i 4.5.6.7.8.9.    ",
"0.a.b.c.d.e.f.g.h.i.j.k.l.m.n.o.p.q.r.s.t.u.    ",
"v.w.x.y.z.A.B.C.D.E.F.G.H.I.J.K.L.M.N.O.P.Q.    ",
"R.S.T.U.V.W.X.Y.Z.`. +.+++@+#+$+%+&+*+=+-+;+>+>+",
",+'+)+!+~+{+]+^+/+(+_+_+_+_+_+_+_+_+_+_+_+_+_+>+",
":+<+[+}+|+1+2+3+4+5+_+6+>+6+6+6+6+6+6+6+6+6+_+>+",
"7+8+9+0+a+b+c+d+e+f+_+6+>+6+6+6+g+g+g+h+6+6+_+>+",
"  i+j+k+l+m+n+-.o+p+_+6+>+6+6+6+g+6+q+>+6+6+_+>+",
"  r+s+t+u+v+g w+x+y+_+6+>+>+>+6+g+q+z+>+6+6+_+>+",
"  A+B+C+D+E+F+F+G+H+_+6+>+6+6+6+h+>+>+>+6+6+_+>+",
"    I+J+K+L+M+N+O+P+_+6+>+6+6+6+6+6+6+6+6+6+_+>+",
"      Q+R+S+T+U+V+W+_+6+>+6+6+6+g+g+h+h+6+6+_+>+",
"        X+Y+Z+`+ @.@_+6+>+6+6+6+g+6+q+>+6+6+_+>+",
"          +@@@#@$@%@_+6+>+>+>+6+g+q+z+>+6+6+_+>+",
"              &@*@=@_+6+6+6+6+6+h+>+>+>+6+6+_+>+",
"                  >+_+_+_+_+_+_+_+_+_+_+_+_+_+>+",
"                  >+>+>+>+>+>+>+>+>+>+>+>+>+>+>+"};
