/* XPM */
static const char *insert_xpm[] = {
/* columns rows colors chars-per-pixel */
"22 22 5 1",
"  c black",
". c #00C200",
"X c yellow",
"o c gray100",
"O c None",
/* pixels */
"OOOOOOOOOOOOOOOOOOOOOO",
"OOOOOOOOOOOOOOOOOOOOOO",
"OO        OOOOOOOOOOOO",
"OOooooooo OOOOOOOOOOOO",
"OOooooooo OOOOOOOOOOOO",
"OOooooooo OOOOOOOOOOOO",
"OO        OOOOOOOOOOOO",
"OOOXOOXOOXOOOOOOOOOOOO",
"OOOOX X XOO         OO",
"OOOO XXX OO ....... OO",
"OOOXXX XXX  ....... OO",
"OOOO XXX OO ....... OO",
"OOOOX X XOO         OO",
"OOOXOOXOOXOOOOOOOOOOOO",
"OO        OOOOOOOOOOOO",
"OOooooooo OOOOOOOOOOOO",
"OOooooooo OOOOOOOOOOOO",
"OOooooooo OOOOOOOOOOOO",
"OO        OOOOOOOOOOOO",
"OOOOOOOOOOOOOOOOOOOOOO",
"OOOOOOOOOOOOOOOOOOOOOO",
"OOOOOOOOOOOOOOOOOOOOOO"
};
