/* XPM */
static const char *linux_xpm[] = {
/* columns rows colors chars-per-pixel */
"16 16 7 1",
"  c black",
". c #808000",
"X c #C0C000",
"o c yellow",
"O c #808080",
"+ c gray100",
"@ c None",
/* pixels */
"@@@@@@    @@@@@@",
"@@@@@@    @@@@@@",
"@@@@@ + + O@@@@@",
"@@@@@  o   @@@@@",
"@@@@@ XoX  @@@@@",
"@@@@@ OOOO @@@@@",
"@@@@@ ++++  @@@@",
"@@@@ O++++O O@@@",
"@@@@ ++++++  @@@",
"@@@ O++++++  @@@",
"@@@ O++++++  @@@",
"@@ oXO++++O   @@",
"@ oXX O+++OXoX @",
"@ XXXXO++O.XXX @",
"@@ XX.    .X  @@",
"@@@   @@@@  @@@@"
};
