/* XPM */
static const char *new_xpm[] = {
/* columns rows colors chars-per-pixel */
"22 22 160 2",
"   c black",
".  c #252626",
"X  c #252727",
"o  c #262727",
"O  c #272828",
"+  c #2C2D2D",
"@  c #323333",
"#  c #393939",
"$  c #3E3F3F",
"%  c #1A506D",
"&  c #3F4040",
"*  c #726000",
"=  c #424343",
"-  c #454646",
";  c #4B4B4B",
":  c #4C4C4C",
">  c #525353",
",  c #585959",
"<  c #5F5F5F",
"1  c #656565",
"2  c #6B6C6C",
"3  c #706A62",
"4  c #716C65",
"5  c #7A746A",
"6  c #7A756C",
"7  c #727272",
"8  c #7F7A72",
"9  c gray47",
"0  c gray50",
"q  c #1B5F8E",
"w  c #1B618F",
"e  c #1B6391",
"r  c #1B6694",
"t  c #1B6896",
"y  c #1B6B97",
"u  c #1C6D9A",
"i  c #1A718C",
"p  c #1C709C",
"a  c #1C729E",
"s  c #1C749F",
"d  c #1C77A1",
"f  c #1D79A4",
"g  c #1D7CA6",
"h  c #1D7EA7",
"j  c #1D81AA",
"k  c #1D83AC",
"l  c #80796F",
"z  c #817A70",
"x  c #817B72",
"c  c #807B74",
"v  c #968200",
"b  c #828079",
"n  c #8C847A",
"m  c #8C867B",
"M  c #928B7E",
"N  c #B59F7F",
"B  c #C0C000",
"V  c #C1C10A",
"C  c yellow",
"Z  c #8E8982",
"A  c #938D83",
"S  c #96938D",
"D  c #98948C",
"F  c #9F988D",
"G  c #999893",
"H  c #A19A90",
"J  c #A19B91",
"K  c #A19B92",
"L  c #A19C93",
"P  c #A29C93",
"I  c #A29D95",
"U  c #A29F97",
"Y  c #A19F99",
"T  c #A3A099",
"R  c #A3A19B",
"E  c #A3A19C",
"W  c #A6A29A",
"Q  c #A4A29D",
"!  c #A4A39F",
"~  c #AAA59F",
"^  c #ADA89F",
"/  c #BCB09B",
"(  c #A5A4A1",
")  c #A5A5A3",
"_  c #A7A5A0",
"`  c #A7A6A1",
"'  c #A5A7A5",
"]  c #AAA7A1",
"[  c #A8A8A4",
"{  c #ABA8A4",
"}  c #ABA9A5",
"|  c #ABAAA7",
" . c #AEAAA2",
".. c #ACACAB",
"X. c #AFAEAA",
"o. c gray68",
"O. c #B2ACA3",
"+. c #B1ADA5",
"@. c #B0ADA8",
"#. c #B4B0A9",
"$. c #B4B1AA",
"%. c #B4B2AD",
"&. c #B5B3AE",
"*. c #B2B3B0",
"=. c #B7B7B5",
"-. c #CFB691",
";. c #D9BF98",
":. c #C4BFB6",
">. c #DDC29B",
",. c #DFC49C",
"<. c #C4C0B8",
"1. c #C5C2BC",
"2. c #C6C4BE",
"3. c #D4C5AA",
"4. c #DBC6A4",
"5. c #D7CCB7",
"6. c #E1C69E",
"7. c #E1C8A2",
"8. c #E3CAA4",
"9. c #E2CEAF",
"0. c #E4CEAB",
"q. c #E6D2B2",
"w. c #E7D6B9",
"e. c #FFFF85",
"r. c #C6C6C1",
"t. c #C7C7C3",
"y. c #E5DDCD",
"u. c #E9DAC0",
"i. c #EADEC7",
"p. c #E8DECA",
"a. c #ECE2CE",
"s. c #EEE6D5",
"d. c #EAE5DC",
"f. c #EBE6DE",
"g. c #EDE8DA",
"h. c #EFEADC",
"j. c #FFFFC0",
"k. c #E9E9E1",
"l. c #ECEAE4",
"z. c #EFEBE4",
"x. c #EDECE8",
"c. c #EDEDEA",
"v. c #F0EEE3",
"b. c #F7F1E7",
"n. c #F0F0E8",
"m. c #F2F2EA",
"M. c #F7F1E8",
"N. c #F7F2E9",
"B. c #F7F2EA",
"V. c #F8F5EE",
"C. c #F8F5EF",
"Z. c #F4F6F1",
"A. c #F5FAF8",
"S. c #F7FFFF",
"D. c #F8F6F0",
"F. c #F9F8F3",
"G. c #F9F8F4",
"H. c #FAF9F5",
"J. c gray100",
"K. c None",
/* pixels */
"K.K.K.K.K.K.K.K.K.K.K.K.K.K.K.K.K.K.K.K.K.K.",
"K.K.K.K.K.K.K.K.K.K.K.K.K.K.K.K.K.K.K.K.K.K.",
"K.K.K.K.K.K.K.K.K.K.K.K.K.K.K.K.K.K.K.K.K.K.",
"K.K.0 0 0 0 0 0 0 0 0 0 0 0 0 0 0 0 0 0 K.K.",
"K.0 S.S.S.S.S.S.S.S.S.S.S.S.S.S.S.S.S.S.0 K.",
"K.9 A.% w e r t t u a a s d f g h j i A.9 K.",
"K.7 Z.q w e r t y u u a d d f g h j k Z.7 K.",
"K.2 m.m.m.m.m.m.m.m.m.m.m.* f.m.m.m.m.m.2 K.",
"K.1 z.) o.=.) X.*.[ * X.* e.* G * %.Y v.1 K.",
"K.< h.) t.x.( r.x.* e.* v C v * e.* S g.< K.",
"K., s.) G.H.! G.F.%.* C B C B C * @.b y., K.",
"K.> a.) | ) ] [ E * v V j.e.j.B v * Z p.> K.",
"K.: a.R 2.z.[ 1.* e.C C e.J.e.C C e.* 5.; K.",
"K.- w.R C.C.#.C.z.* v B j.e.j.B v * 4 / = K.",
"K.$ w.W ] #.W ~  .D * C B C B C * c 6 3.$ K.",
"K.# q.R <.f.I <.f.* e.* v C v * e.* m 9.# K.",
"K.@ 0.I B.B.P b.b.O.*  .* e.* 8 * ^ z 4.@ K.",
"K.+ 8.P P P F P P F A x m * 3 5 m l M 7.+ K.",
"K.X 6.6.6.6.6.6.6.6.>.>.>.-.N -.>.;.6.6.o K.",
"K.K.O O O O O O O O X O X o o o o o o o K.K.",
"K.K.K.K.K.K.K.K.K.K.K.K.K.K.K.K.K.K.K.K.K.K.",
"K.K.K.K.K.K.K.K.K.K.K.K.K.K.K.K.K.K.K.K.K.K."
};
