/* XPM */
static const char *options_small_xpm[]={
"18 18 88 2",
"Qt c None",
".l c #000000",
".c c #050505",
".A c #143433",
".j c #173a38",
".M c #215250",
".7 c #235351",
".i c #2a6a68",
".4 c #2b2b2c",
".B c #2c5a58",
".P c #2f5d5b",
".p c #357270",
"#o c #38250a",
".2 c #39393b",
"#m c #397573",
"#d c #3a260a",
"#c c #3b7674",
".x c #3c3c3e",
"#h c #3c7675",
".d c #414143",
".b c #424244",
".a c #49494b",
".9 c #4b320e",
".k c #4d4d4f",
".z c #4d908e",
".V c #50491d",
".F c #559b99",
".s c #565657",
".w c #58585a",
".o c #5b5b5d",
".E c #625821",
".C c #636365",
".O c #65acaa",
".H c #69696a",
"#b c #6b4815",
".Z c #6f4e1d",
".R c #72bab8",
"#j c #7cc2c0",
".U c #828283",
"#. c #84612b",
"#e c #906c33",
".8 c #949495",
".W c #978530",
".N c #97d4d2",
"#u c #987339",
"#p c #99743a",
".m c #99999a",
".6 c #9c7741",
".1 c #a0a0a0",
".T c #a0a0a1",
"#k c #a48350",
".v c #aaaaaa",
".G c #aadbdd",
".3 c #acacad",
".q c #acdbdc",
".n c #b1b1b2",
"#r c #b38a56",
"#a c #b48d5b",
".u c #b4b4b6",
".I c #b7b7b8",
".h c #bcbcbe",
"#i c #bde5e3",
"#g c #be9a6d",
".0 c #bee1e0",
".D c #c0c0c1",
"#s c #c1e5e5",
".r c #c3c3c3",
"#n c #c4e7e5",
".Q c #c5e6e6",
".Y c #c7ab56",
".g c #c9c9cb",
".y c #c9e7e8",
".5 c #ceac7f",
".L c #cfb262",
"#t c #d3b186",
"#v c #dadada",
"## c #debd96",
".J c #dededf",
".f c #e3e3e4",
"#q c #e5c49d",
"#f c #e7ceab",
"#l c #ebd4b3",
".S c #ebebec",
".e c #eeeeee",
".K c #f0e4bb",
".t c #f4f4f4",
".X c #fdf5dc",
".# c #ffffff",
"QtQtQtQtQtQt.#.a.b.b.cQtQtQtQtQtQtQt",
"QtQtQtQtQtQt.d.e.f.g.h.c.i.jQtQtQtQt",
"QtQtQt.#.k.l.m.n.o.l.l.p.q.i.rQtQtQt",
"QtQt.#.s.t.u.v.w.x.u.p.y.z.A.B.j.rQt",
"QtQtQt.C.D.t.E.E.u.i.q.F.A.B.G.l.rQt",
"Qt.x.H.I.J.E.K.L.E.M.N.O.P.Q.R.i.rQt",
".x.S.T.U.o.V.W.X.Y.Z.0.N.R.R.i.j.1Qt",
".2.3.S.w.4.U.V.W.5.6.Z.i.i.7.j.1QtQt",
"Qt.c.8.c.w.TQt.9#.###a#b.l.1.1.rQtQt",
"QtQt.c.b.TQt#c.z#d#e#f#g#b.rQtQtQtQt",
"QtQtQt.T.T#h#i#j.M#d#k#l#g#bQtQtQtQt",
"QtQtQtQt#m#n#j.i.l.1#o#p#q#r#bQtQtQt",
"QtQtQt.B#s#j.i.l.1.rQt#d#p#t#u#bQtQt",
"QtQtQt.j#j.i.l.1.rQtQtQt#d#u.9#o.rQt",
"QtQt.#Qt.j.l.1.rQtQtQtQtQt#d.9.1.rQt",
"QtQt.##vQt.r.rQtQtQtQtQtQtQt.r.rQtQt",
"QtQtQtQtQtQtQtQtQtQtQtQtQtQtQtQtQtQt",
"QtQtQtQtQtQtQtQtQtQtQtQtQtQtQtQtQtQt"};
