/* XPM */
static const char *options_xpm[] = {
/* columns rows colors chars-per-pixel */
"24 24 5 1",
"  c black",
". c gray60",
"X c gray80",
"o c gray100",
"O c None",
/* pixels */
"OOOOO        .OOOOOOOOOO",
"OOOOO  ......  OOOOOOOOO",
"OOOOO o  XXXX..  OOOOOOO",
"OOOOO XXo  XXXX.. .OOOOO",
"O  O.o  XXo  XXX.. OOOOO",
"  o  ...  XXo XXX. .OOOO",
"  oX        X XXX.. OOOO",
"  ooXX  oooo XXXXX. OOOO",
" o oXXXX    XXXXXX. OOOO",
" o ooXXXXXXXXXXXXX.. OOO",
" Xo oooXXXXXXXXXXXX..  O",
"O Xo  oooXXXXXXXXXXX... ",
"O XXoo  oooooooooXXXXX..",
"OO XXXoo       ooooXXXXX",
"OOO  XXXX......  ooooXXX",
"OOOOO  X.........  ooooX",
"OOOOOOO      ..XX..  ooo",
"OOOOOOOOOOOOO  XXXX..  o",
"OOOOOOOOOOOOOOO  XXXX.. ",
"OOOOOOOOOOOOOOOOO  XXXX.",
"OOOOOOOOOOOOOOOOOOO  XXX",
"OOOOOOOOOOOOOOOOOOOOO  X",
"OOOOOOOOOOOOOOOOOOOOOOO ",
"OOOOOOOOOOOOOOOOOOOOOOOO"
};
