/* XPM */
static const char *partlist_small_xpm[] = {
/* columns rows colors chars-per-pixel */
"16 16 5 1",
"  c black",
". c blue",
"X c green",
"o c red",
"O c None",
/* pixels */
"OOOOOOOOOOOOOOOO",
"OOOOOOOOOOOOOOOO",
"OOXXXXXXXoooooOO",
"OOXXXXXXXoooooOO",
"OOXXXXXXXoooooOO",
"OOoo.......XXXOO",
"OOoo.......XXXOO",
"OOoo.......XXXOO",
"OOXXXXXXX.....OO",
"OOXXXXXXX.....OO",
"OOXXXXXXX.....OO",
"OO.....oooooooOO",
"OO.....oooooooOO",
"OO.....oooooooOO",
"OOOOOOOOOOOOOOOO",
"OOOOOOOOOOOOOOOO"
};
