/* XPM */
static const char *partlist_xpm[] = {
/* columns rows colors chars-per-pixel */
"22 22 5 1",
"  c black",
". c blue",
"X c green",
"o c red",
"O c None",
/* pixels */
"OOOOOOOOOOOOOOOOOOOOOO",
"OOOOOOOOOOOOOOOOOOOOOO",
"OOOOOOOOOOOOOOOOOOOOOO",
"OOXXXXXXXXXXXoooooooOO",
"OOXXXXXXXXXXXoooooooOO",
"OOXXXXXXXXXXXoooooooOO",
"OOXXXXXXXXXXXoooooooOO",
"OOooo...........XXXXOO",
"OOooo...........XXXXOO",
"OOooo...........XXXXOO",
"OOooo...........XXXXOO",
"OOXXXXXXXXXXX.......OO",
"OOXXXXXXXXXXX.......OO",
"OOXXXXXXXXXXX.......OO",
"OOXXXXXXXXXXX.......OO",
"OO........ooooooooooOO",
"OO........ooooooooooOO",
"OO........ooooooooooOO",
"OO........ooooooooooOO",
"OOOOOOOOOOOOOOOOOOOOOO",
"OOOOOOOOOOOOOOOOOOOOOO",
"OOOOOOOOOOOOOOOOOOOOOO"
};
