/* XPM */
static const char *pause_xpm[] = {
/* columns rows colors chars-per-pixel */
"22 22 44 1",
"  c black",
". c #010101",
"X c #040404",
"o c #090909",
"O c #0B0B0B",
"+ c #0C0C0C",
"@ c gray5",
"# c #0E0E0E",
"$ c gray6",
"% c #101010",
"& c #111111",
"* c gray8",
"= c #151515",
"- c gray9",
"; c #181818",
": c gray10",
"> c #222222",
", c #515151",
"< c gray38",
"1 c gray42",
"2 c #6F6F6F",
"3 c #727272",
"4 c gray45",
"5 c #888888",
"6 c #898989",
"7 c gray54",
"8 c #8B8B8B",
"9 c #909090",
"0 c #929292",
"q c gray58",
"w c #979797",
"e c gray64",
"r c #A4A4A4",
"t c #ACACAC",
"y c #AEAEAE",
"u c #AFAFAF",
"i c #B1B1B1",
"p c #B7B7B7",
"a c #C0C0C0",
"s c gainsboro",
"d c #E6E6E6",
"f c gray91",
"g c gray100",
"h c None",
/* pixels */
"hhhhhhhhhhhhhhhhhhhhhh",
"hhhhhhhhhhhhhhhhhhhhhh",
"hhhhhhhhhhhhhhhhhhhhhh",
"hhhhhhhhhhhhhhhhhhhhhh",
"hhhhhhhhhhhhhhhhhhhhhh",
"hhhh XOO  hh XXOX hhhh",
"hhhh#ar9,Xhh#ar9, hhhh",
"hhhh;ifp,Ohh;ifp,Ohhhh",
"hhhh;tg03#hh;tg93#hhhh",
"hhhh=tg93#hh=tg93#hhhh",
"hhhh*tg93#hh*tg94#hhhh",
"hhhh#rg93#hh#rg04#hhhh",
"hhhh#wg83#hh#wg83#hhhh",
"hhhh#0g83#hh#9g83#hhhh",
"hhhh#2d83 hh*2d83 hhhh",
"hhhh>2s83 hh>1s83 hhhh",
"hhhh <83, hh <84, hhhh",
"hhhh      hh      hhhh",
"hhhhhhhhhhhhhhhhhhhhhh",
"hhhhhhhhhhhhhhhhhhhhhh",
"hhhhhhhhhhhhhhhhhhhhhh",
"hhhhhhhhhhhhhhhhhhhhhh"
};
