/* XPM */
static const char * pause_small_xpm[] = {
"16 16 39 1",
" 	c None",
".	c #B8DEDA",
"+	c #B0DAD4",
"@	c #98CEC7",
"#	c #5F8C85",
"$	c #B3DBD6",
"%	c #98CEC6",
"&	c #F5F8F8",
"*	c #F2F7F7",
"=	c #4F8078",
"-	c #A9D5CF",
";	c #F3F8F8",
">	c #C4E7E3",
",	c #45756D",
"'	c #A1D2CC",
")	c #BCE3DE",
"!	c #376B65",
"~	c #EEF4F3",
"{	c #AEDAD6",
"]	c #2A635D",
"^	c #90CAC1",
"/	c #E3F1EF",
"(	c #97CDC5",
"_	c #1D5A51",
":	c #87C6BE",
"<	c #72BAB0",
"[	c #1A564E",
"}	c #7ABFB4",
"|	c #97D1CB",
"1	c #4CA99F",
"2	c #6EB5AC",
"3	c #6DBFB4",
"4	c #3C9A8D",
"5	c #19534A",
"6	c #63ABA2",
"7	c #549E95",
"8	c #26776C",
"9	c #52978E",
"0	c #3A6E69",
"                ",
"                ",
"   .+@#  .$%#   ",
"   +&*=  +&*=   ",
"   -;>,  -;>,   ",
"   '*)!  '*)!   ",
"   %~{]  %~{]   ",
"   ^/(_  ^/%_   ",
"   :><[  :><[   ",
"   }|1[  }|1[   ",
"   2345  2345   ",
"   6785  6785   ",
"   90[5  90[5   ",
"                ",
"                ",
"                "};
