/* XPM */
static const char *power_max_xpm[] = {
/* columns rows colors chars-per-pixel */
"22 22 174 2",
"   c black",
".  c #830000",
"X  c #850802",
"o  c #840804",
"O  c #840905",
"+  c #850A05",
"@  c #8D0A0C",
"#  c #961909",
"$  c #96190B",
"%  c #951A0D",
"&  c #8C201F",
"*  c #9F2C00",
"=  c #952F2D",
"-  c #A61707",
";  c #B30600",
":  c #B91503",
">  c #A12E16",
",  c #A42A10",
"<  c #AE351A",
"1  c #AD361C",
"2  c #B22609",
"3  c #BD3216",
"4  c #B8371E",
"5  c #B94725",
"6  c #AD5F5D",
"7  c #B56D60",
"8  c #CB0600",
"9  c #CB1300",
"0  c #D91700",
"q  c #DD1404",
"w  c #C02202",
"e  c #C2250A",
"r  c #C22E0F",
"t  c #CD2103",
"y  c #D93C16",
"u  c #E30600",
"i  c #E71700",
"p  c #E81D00",
"a  c #E32300",
"s  c #E5300B",
"d  c #C9471A",
"f  c #D65D29",
"g  c #D45337",
"h  c #C76504",
"j  c #C86700",
"k  c #D36C0F",
"l  c #D67809",
"z  c #DE6025",
"x  c #DE632B",
"c  c #D66435",
"v  c #DE6833",
"b  c #E74C16",
"n  c #E84C1C",
"m  c #E75006",
"M  c #F85F08",
"N  c #EE610E",
"B  c #F66002",
"V  c #FB6007",
"C  c #FE6302",
"Z  c #FF6B0E",
"A  c #F16914",
"S  c #F56B1E",
"D  c #F86A11",
"F  c #FB6C13",
"G  c #F86C14",
"H  c #FF6D12",
"J  c #F96C1A",
"K  c #FF751E",
"L  c #EF702A",
"P  c #E67237",
"I  c #EA7039",
"U  c #F26B27",
"Y  c #F47729",
"T  c #F7762A",
"R  c #F4792C",
"E  c #F87625",
"W  c #FF7A26",
"Q  c #F8782D",
"!  c #FF7E2D",
"~  c #F77B31",
"^  c #F77D37",
"/  c #DF6E53",
"(  c #DA744C",
")  c #DE7E55",
"_  c #E56646",
"`  c #E97344",
"'  c #E87C54",
"]  c #B7817C",
"[  c #D98726",
"{  c #DF8C23",
"}  c #E19300",
"|  c #E29415",
" . c #F58138",
".. c #FF8031",
"X. c #FF8132",
"o. c #FF8133",
"O. c #F88238",
"+. c #FF8538",
"@. c #FF863A",
"#. c #FF863C",
"$. c #EEAC00",
"%. c #E6A713",
"&. c #EDAC21",
"*. c #DD8562",
"=. c #DE8A6A",
"-. c #F78340",
";. c #F58844",
":. c #FF8A41",
">. c #FF8C47",
",. c #FC8D48",
"<. c #FF9049",
"1. c #FF904A",
"2. c #FF9350",
"3. c #FF9C5E",
"4. c #FF9D5E",
"5. c #FF9D5F",
"6. c #E78461",
"7. c #F69968",
"8. c #E8B076",
"9. c #F8A774",
"0. c #FFAA75",
"q. c #FFAA76",
"w. c #FBCB0D",
"e. c #FFDA3D",
"r. c #FFDC5D",
"t. c #FFE350",
"y. c #FFE86A",
"u. c #FFE876",
"i. c #FFEB7E",
"p. c #A38897",
"a. c #AC8E9C",
"s. c #DD9881",
"d. c #DD9B9C",
"f. c #D5BDB7",
"g. c #E39B9C",
"h. c #F7BF9D",
"j. c #FFBB91",
"k. c #FABE98",
"l. c #FABE99",
"z. c #F2BFA2",
"x. c #F8D28A",
"c. c #E6C8A4",
"v. c #EBC7B4",
"b. c #F0C4AA",
"n. c #F4C4A8",
"m. c #F5C7AD",
"M. c #F7C9AE",
"N. c #F9C7A8",
"B. c #FBCAAA",
"V. c #FBCCAE",
"C. c #FBD1B7",
"Z. c #FBD3BA",
"A. c #FFEE92",
"S. c #FFED9B",
"D. c #FCEEBF",
"F. c #FFF1A6",
"G. c #FFF0AE",
"H. c #FFF4B9",
"J. c #C2C2CF",
"K. c #DFC9C2",
"L. c #D1D1DA",
"P. c #D1D1DB",
"I. c #DDDDE4",
"U. c #DEDEE5",
"Y. c #FCDAC4",
"T. c #F7EAD0",
"R. c #FFF7CC",
"E. c #E6E6EC",
"W. c #E7E7EC",
"Q. c #EDEDF1",
"!. c #FFF7E1",
"~. c #F0F0F3",
"^. c #F3F3F6",
"/. c None",
/* pixels */
"/./././././././././././././././././.s i p u ",
"/./././././././././././././././.s s 7.B.Y.a ",
"/././././././././././././././.s b k.V.Z.C.0 ",
"/./././././././././././././.s _ n.m.N.V.9.8 ",
"/././././././././././././.s g.^.Q.W.m.l.y /.",
"/./././././././././././.s / n.b.v.U.z.I 2 /.",
"/./././././.` ` ` ` ` g d.~.E.U.K.L.( ; /./.",
"/././././.` e g ` ' 6.m Y  .;.L.f.a.2 /././.",
"/./././.` r :.5.0.j.,.G S U  .J.] 2 /./././.",
"/././.` 3 o.+.1.4...C M q b R p.2 /././././.",
"/./.` 4 ,.#.o.+.! H V 9 t A N @ /./././././.",
"/./.4 4 4 4 . d W J : w B F *.` /./././././.",
"/././././.` < +.Q - 2 D Z 0.s.` /./././././.",
"/././././.3 < -.$ , E K 2.0.=.` /./././././.",
"/./././.k 8.6 o > O.L ~ 1.4.) ` /./././././.",
"/././.{ R.T.= & 5 P o z +.1.f ` /./././././.",
"/./.l S.H.c.7 !.* o 4 x ..Q X /././././././.",
"/.&.&.A.F.H.R.x.8./.` v ^ $ /./././././././.",
"/.h e.i.A.F.G.[ /./.` c % /././././././././.",
"h h t.y.u.r.| /././.` o /./././././././././.",
"w.%.w.$.} j /./././.g /././././././././././.",
"$.w.$.h /./././././././././././././././././."
};
