/* XPM */
static const char *reload_xpm[] = {
/* columns rows colors chars-per-pixel */
"22 22 143 2",
"   c black",
".  c #010101",
"X  c gray1",
"o  c #070707",
"O  c gray3",
"+  c gray4",
"@  c #0B0B0B",
"#  c gray5",
"$  c #121600",
"%  c #141400",
"&  c #161600",
"*  c #101800",
"=  c gray7",
"-  c gray8",
";  c #151515",
":  c gray9",
">  c #191919",
",  c gray10",
"<  c gray11",
"1  c #1D1D1D",
"2  c gray12",
"3  c #112405",
"4  c #142908",
"5  c #142B0A",
"6  c #192C0B",
"7  c #16310C",
"8  c #17320C",
"9  c #1A330D",
"0  c #1B3E0F",
"q  c #1C3F10",
"w  c #212106",
"e  c #213B14",
"r  c gray13",
"t  c #222222",
"y  c gray14",
"u  c #252525",
"i  c #282828",
"p  c gray16",
"a  c #2A2A2A",
"s  c #2C2C2C",
"d  c gray18",
"f  c #2F2F2F",
"g  c #353535",
"h  c gray22",
"j  c gray23",
"k  c #3C3C3C",
"l  c #1C4110",
"z  c #1D4613",
"x  c #1E4917",
"c  c #284919",
"v  c #215017",
"b  c #225118",
"n  c #305020",
"m  c #256022",
"M  c #296C27",
"N  c #2A6F2B",
"B  c #2A732F",
"V  c #2C7F39",
"C  c #366D2F",
"Z  c #337F3A",
"A  c #417036",
"S  c #407438",
"D  c gray25",
"F  c #414141",
"G  c gray26",
"H  c #434343",
"J  c gray27",
"K  c #464646",
"L  c gray28",
"P  c #484848",
"I  c #4B4B4B",
"U  c #4C4C4C",
"Y  c gray30",
"T  c #505050",
"R  c #515151",
"E  c gray34",
"W  c gray37",
"Q  c #477D40",
"!  c #686868",
"~  c #6A6A6A",
"^  c #6D6D6D",
"/  c gray43",
"(  c #6F6F6F",
")  c #717171",
"_  c gray46",
"`  c #797979",
"'  c #2C813A",
"]  c #2D823B",
"[  c #2F833C",
"{  c #31843E",
"}  c #32843F",
"|  c #2F8B40",
" . c #2F8F46",
".. c #378843",
"X. c #3D8F4B",
"o. c #3A924C",
"O. c #319E52",
"+. c #2FA057",
"@. c #32A65C",
"#. c #32A85D",
"$. c #33B364",
"%. c #34B464",
"&. c #46914F",
"*. c #419652",
"=. c #50854A",
"-. c #46B670",
";. c #47B671",
":. c #55BD7A",
">. c #63C284",
",. c #63C385",
"<. c #64C280",
"1. c #65C284",
"2. c #6AC684",
"3. c #6FC386",
"4. c #7DCB8F",
"5. c #818181",
"6. c gray51",
"7. c #848484",
"8. c #898989",
"9. c #8D8D8D",
"0. c #9B9B9B",
"q. c #A0A0A0",
"w. c gray64",
"e. c #A5A5A5",
"r. c #AFAFAF",
"t. c gray71",
"y. c gray72",
"u. c #82CD91",
"i. c #A3DAAE",
"p. c #B0E1B5",
"a. c #B2E0B8",
"s. c #B8E2BE",
"d. c #B9E4BD",
"f. c #BEE5C1",
"g. c #C3C3C3",
"h. c #CBE9CB",
"j. c #CEECCE",
"k. c #D4F4D4",
"l. c #D8F0D6",
"z. c #DFF3DD",
"x. c #E0F3DD",
"c. c gray100",
"v. c None",
/* pixels */
"v.v.v.v.v.v.v.v.v b 0 l e 9 % v.v.v.v.v.v.v.",
"v.v.v.v.v.v.z B 1.l.d.u.X.Q A x 0 v.v.v.v.v.",
"v.v.v.v.v.z @.c.s.;.[ z 3 % w % x 5 v.v.v.v.",
"v.v.v.v.v.B c.p.;.=.% % v.v.v.v.% 5 * v.v.v.",
"v.v.v.v.z 1.h.>.{ 8 v.v.v.v.v.v.v.v.5 % v.v.",
"v.v.v.v.N c.i.} % v.v.v.v.v.v.v.v.v.v.% v.v.",
"v.v.v.v.M x.,.&.4 v.v.v.v.v.v.v.v.v.v.v.v.v.",
"% 0 c n +.f.:.} 6 % % % v.v.v.v.v.v.v.v.v.v.",
"% V a.x.k.3.*...4.j.] 7 v.v.v.  ; v.v.v.v.v.",
"v.% C @.%.O.o.<.] m % v.v.v.  q.K , v.v.v.v.",
"v.v.& C  .$.2.] m % v.v.v.  y.^ 7.K ; v.v.v.",
"v.v.v.& Z { ] m % v.v.v.  g.^ h P 9.Y , v.v.",
"v.v.v.v.% C m % v.v.v.  t.( g t u Y 9.K ; v.",
"v.v.v.v.v.% % v.v.v.a 0.! K K a g s K ) s + ",
"v.v.v.v.v.v.v.v.v.v.        _ k T u         ",
"v.v.v.v.v.v.v.v.v.v.v.v.v.  8.F E u v.v.v.v.",
"v.v.  v.v.v.v.v.v.v.v.v.v.  e.k T , v.v.v.v.",
"v.v.    v.v.v.v.v.v.v.v.  r.! H F O v.v.v.v.",
"v.v.v.      v.v.v.v.    r.7.F P - v.v.v.v.v.",
"v.v.v.v.O t @ 1     ` r.6.T T s o v.v.v.v.v.",
"v.v.v.v.v.  2 U ! 6.e.W F T #   v.v.v.v.v.v.",
"v.v.v.v.v.v.v.+ = , 2 t 1   v.v.v.v.v.v.v.v."
};
