/* XPM */
static const char *reload_small_xpm[] = {
/* columns rows colors chars-per-pixel */
"16 16 114 2",
"   c black",
".  c #020202",
"X  c gray5",
"o  c #111111",
"O  c #191919",
"+  c gray10",
"@  c #1E1E1E",
"#  c #0C2600",
"$  c #113800",
"%  c gray15",
"&  c #2D2D2D",
"*  c gray19",
"=  c #313131",
"-  c gray20",
";  c #373737",
":  c gray24",
">  c #154400",
",  c #124515",
"<  c #1C4E1F",
"1  c #1B521E",
"2  c #1B571A",
"3  c #1C501B",
"4  c #1E5421",
"5  c #244926",
"6  c #235326",
"7  c #215824",
"8  c #265C28",
"9  c #295F2C",
"0  c #2F783F",
"q  c #2F7A41",
"w  c gray26",
"e  c gray27",
"r  c #4C4C4C",
"t  c #535353",
"y  c #585858",
"u  c #5D5D5D",
"i  c gray42",
"p  c #6D6D6D",
"a  c gray44",
"s  c #7B7B7B",
"d  c #208A17",
"f  c #249215",
"g  c #289B19",
"h  c #2FA522",
"j  c #3FBE31",
"k  c #56A64F",
"l  c #6EBC66",
"z  c #818181",
"x  c #8F8984",
"c  c #898989",
"v  c #929292",
"b  c gray60",
"n  c #9F9F9F",
"m  c #BEB6AF",
"M  c #B2B2B2",
"N  c #BCB7B1",
"B  c #A9D7AD",
"V  c #B5D7B3",
"C  c #B3D8B2",
"Z  c #C79F80",
"A  c #C8A487",
"S  c #C9A68A",
"D  c #CAA98E",
"F  c #CBAC93",
"G  c #CBAD95",
"H  c #CDB19C",
"J  c #CDB29C",
"K  c #CEB6A3",
"L  c #CFB7A5",
"P  c #D0BBAA",
"I  c #D1BEAE",
"U  c #D1BFB0",
"Y  c #D3C3B7",
"T  c #E9C7AA",
"R  c #ECCEB4",
"E  c #EED4BD",
"W  c #EED4BE",
"Q  c #EED5BE",
"!  c #CECECE",
"~  c gray87",
"^  c #C6E0C4",
"/  c #DBECDA",
"(  c #F0D9C5",
")  c #F0DBC7",
"_  c #F1DAC7",
"`  c #F1DBC7",
"'  c #F2DDCB",
"]  c #E2E0DE",
"[  c #E7E0D9",
"{  c #F2E0CF",
"}  c #F2E0D0",
"|  c #F3E1D1",
" . c #F4E3D5",
".. c #F4E4D5",
"X. c #F5E6D9",
"o. c #F5E7DA",
"O. c #F6E7DA",
"+. c #F6E9DE",
"@. c #F6E9DF",
"#. c #F7E9DE",
"$. c #E4E4E4",
"%. c #EAEAEA",
"&. c #F8EDE3",
"*. c #F9EEE6",
"=. c #F9EFE7",
"-. c #FAF1EA",
";. c #FAF5EF",
":. c #FBF6F2",
">. c #FBF7F3",
",. c #FDFBF9",
"<. c #FEFCFB",
"1. c gray99",
"2. c gray100",
"3. c None",
/* pixels */
"3.3.3.3.8 4 4 4 4 > y y y 3.3.3.",
"3.3.3.9 C d h > $ # > > b y 3.3.",
"3.3.7 / d 3 2.2.2.2.%.p 2.b y 3.",
"3.3.6 B h 3 2.2.2.2.2.p ! 2.b * ",
"3.3.< l 3 ~ 2.2.2.2.2.c a i w * ",
"3 1 < k j 3 1 1 2.2.2.$.] N x * ",
"2 V l g f 0 3 2.2.2.2.,.:.[ m * ",
"3.5 ^ f q 3 2.  2.2.2.:.-.@.U * ",
"3.3., V < $.      ,.;.=.#...P * ",
"3.3.3.1 y     &     =.#...' K * ",
"3.3.3.      s * s     O.| ` J * ",
"3.3.3.3.y - n ;   *.O.| ` Q G * ",
"3.3.3.3.y   z r O o.' _ Q R D * ",
"3.3.3.3.  M y e   | _ Q R T A * ",
"+     t v u : X Y I L J F S Z * ",
"3.o %     @   * * * * * * * * * "
};
