/* XPM */
static const char *remove_xpm[] = {
/* columns rows colors chars-per-pixel */
"22 22 6 1",
"  c black",
". c #00C200",
"X c red",
"o c yellow",
"O c gray100",
"+ c None",
/* pixels */
"++++++++++++++++++++++",
"++++++++++++++++++++++",
"++        ++++++++++++",
"++OOOOOOO ++++++++++++",
"++OOOOOOO ++++++++++++",
"++OOOOOOO ++++++++++++",
"++        ++++++++++++",
"++++++++++++++++++++++",
"++++         +XX++XX++",
"++++ XXXXXXX +XX+XXX++",
"++++ XXXXXXX ++XXXX+++",
"++++ XXXXXXX +++XX++++",
"++++         ++XXX++++",
"++++++++++++++XX++X+++",
"++        ++++X+++X+++",
"++OOOOOOO ++++++++++++",
"++OOOOOOO ++++++++++++",
"++OOOOOOO ++++++++++++",
"++        ++++++++++++",
"++++++++++++++++++++++",
"++++++++++++++++++++++",
"++++++++++++++++++++++"
};
