/* XPM */
static const char *rename_plus_small_xpm[]={
"18 18 85 2",
"Qt c None",
".7 c #1a1812",
".A c #1c0c01",
".I c #210f01",
".T c #303030",
".X c #332e23",
".Y c #474544",
".2 c #4c392c",
".a c #534f4c",
".# c #585858",
".3 c #5b5957",
".S c #5c4733",
"#b c #736a5a",
".W c #825234",
".R c #87542b",
".1 c #897862",
"#c c #9c9488",
".8 c #9f9c96",
".H c #a04a04",
".N c #a04b0a",
".b c #a36f52",
".v c #a54e04",
".4 c #b0b0af",
"#m c #bc9e73",
".6 c #bca178",
"#h c #bca37f",
"#r c #bca685",
".5 c #bca88a",
".Z c #bcab90",
"#s c #bda076",
"#d c #bdb4a4",
".i c #c00000",
"#q c #c0af91",
"#p c #c2b39a",
".k c #c37b40",
"#o c #c4bdac",
".9 c #c4bfb9",
".V c #c67d5a",
".Q c #c67e5d",
"#n c #c6c1b6",
".j c #cecece",
".o c #cf6524",
".M c #d37043",
".f c #d38f5d",
"#a c #dac8ab",
"#. c #dad6d3",
".0 c #dcd0bf",
".d c #dedede",
".e c #dfdfdf",
".u c #e47604",
".G c #e47702",
"#l c #e5cca7",
".n c #e5d6c8",
"#g c #e7d1b0",
".r c #e7dacc",
"## c #e9d6b9",
".E c #eb9260",
".J c #ebb698",
".q c #ec7a03",
"#f c #ecdabf",
".w c #ecdad2",
".B c #ededed",
"#e c #eedfc8",
".O c #efd0b5",
"#k c #f0e4d0",
".L c #f1b492",
"#j c #f2e8d8",
".C c #f4d6c1",
"#i c #f4ede1",
".U c #f7c9ac",
".x c #f8c58d",
".F c #fa800a",
".l c #fac689",
".p c #fac98f",
".c c #facb8d",
".s c #fd850c",
".y c #fe8406",
".t c #fe8703",
".m c #fe8801",
".z c #fe8804",
".g c #fe8f0c",
".K c #fee5ca",
".P c #ffd1b1",
".D c #ffe2cd",
".h c #ffffff",
"QtQt.#.#.#.#.#.#.#.#.#.#.#.a.b.cQtQt",
"QtQt.#.d.d.d.d.d.d.d.e.eQt.f.c.gQtQt",
"QtQt.#.d.h.i.h.d.h.h.h.j.k.l.g.mQtQt",
"QtQt.#.d.h.i.h.d.h.h.n.o.p.g.m.qQtQt",
"QtQt.#.i.i.i.i.i.h.r.k.p.s.t.u.vQtQt",
"QtQt.#.d.h.i.h.d.w.f.x.y.z.u.v.AQtQt",
"QtQt.#.d.h.i.h.B.C.D.E.F.G.H.IQtQtQt",
"QtQt.#.d.d.d.d.J.K.L.M.o.N.IQtQtQtQt",
"QtQt.#.d.h.h.w.O.P.Q.R.S.I.TQtQtQtQt",
"QtQt.#.d.h.h.J.U.V.W.X.Y.Z.TQtQtQtQt",
"QtQt.#.d.d.0.1.b.2.3.4.4.5.TQtQtQtQt",
"QtQt.#.d.B.6.7.a.8.9#.##.5.TQtQtQtQt",
"QtQt.#.e#a#b#c#d#e#f###g#h.TQtQtQtQt",
"QtQt.#.e#i#j#k#e#f###g#l#m.TQtQtQtQt",
"QtQt.#.9#n#o#p#p#q#q#r#s#m.TQtQtQtQt",
"QtQt.#.T.T.T.T.T.T.T.T.T.T.TQtQtQtQt",
"QtQtQtQtQtQtQtQtQtQtQtQtQtQtQtQtQtQt",
"QtQtQtQtQtQtQtQtQtQtQtQtQtQtQtQtQtQt"};
