/* XPM */
static const char *rename_xpm[]={
"22 22 149 2",
"Qt c None",
"as c #000000",
"ag c #040404",
"#8 c #090909",
".T c #0d0d0d",
"#O c #101010",
"#d c #171717",
"#o c #2e2a22",
"#F c #32261e",
"#p c #36322e",
"#R c #363232",
"#G c #422e26",
".n c #4f4f4f",
".i c #505050",
"#0 c #524636",
"ah c #535353",
".h c #545454",
"#H c #565252",
"#y c #5a4a3e",
"#i c #5a4e36",
".g c #5b5b5b",
"#s c #5f5f5f",
".f c #636363",
".e c #666666",
".d c #6b6b6b",
".c c #6e6e6e",
"#x c #724e3a",
"#u c #72664e",
".b c #767676",
"#j c #776a56",
".C c #787878",
"#S c #7e766b",
".a c #7e7e7e",
".p c #838383",
"#c c #864a1e",
".# c #868686",
"#1 c #877c6e",
"#r c #897960",
".j c #8e522a",
".w c #8e5e36",
"#q c #908674",
"#T c #908675",
".z c #92622e",
"#z c #938978",
"#I c #93897a",
"#h c #965a3a",
"#A c #998e7f",
".2 c #9a4606",
".D c #9a6636",
"#J c #9d9382",
".S c #9e4a06",
".O c #a24e06",
"#U c #a39882",
"#C c #a48f6f",
"ab c #a49985",
"#B c #ac9d85",
"#b c #ae6232",
"#K c #afa38e",
"#V c #b2a38b",
"al c #b2a690",
"aa c #b5a593",
"#v c #b68a6a",
"#N c #b69e7a",
"am c #b8a88c",
"#W c #b9a688",
".H c #ba7a3e",
"a# c #bbae9c",
"ar c #bc9d70",
"ak c #bcb19c",
"af c #bd9f74",
"#7 c #bda177",
"an c #bdaa8d",
"#Y c #bea37b",
"aq c #bea680",
"ao c #beaa89",
"ap c #bfa885",
"#X c #bfab8d",
"#L c #c0b29b",
".7 c #c25e12",
".K c #c28246",
"aj c #c3b9a6",
"ai c #c4bcac",
".s c #c5bfb1",
"#w c #c68662",
".m c #c6c1b6",
"#2 c #c8b79f",
"#Q c #c9c6bf",
".l c #c9c9c9",
".N c #ca6206",
"#a c #ca825e",
"#E c #caae82",
".R c #ce6602",
"#n c #ce8266",
"#P c #cfc9c2",
"#M c #d0ba9a",
"ac c #d3c1a8",
"#e c #d3ccc5",
".J c #d66a06",
".X c #d6d6d3",
".r c #d6d6d6",
".5 c #da6e3e",
".L c #da924e",
"a. c #dacfbd",
"#3 c #dbcbb1",
"ae c #dec6aa",
"ad c #e0c9ae",
".6 c #e26a2e",
".t c #e29a56",
"#6 c #e2caa2",
"#5 c #e4cca8",
"#4 c #e7cfb3",
".0 c #ea8e5a",
".W c #ea9a6e",
".Q c #eeb276",
"#Z c #efe3d3",
".1 c #f27e0e",
"#g c #f2b296",
"#9 c #f2eada",
"#t c #f4ece4",
".I c #f68606",
".P c #f6b696",
".Z c #f6c6aa",
"#D c #f6eee2",
"#l c #f6f2e6",
".M c #fa820a",
".k c #faae5e",
".V c #fae6d2",
"#. c #faf2ea",
"#k c #faf6ee",
".3 c #faf6f6",
".9 c #fafaf6",
".v c #fafafa",
".q c #fcfcfc",
".F c #fe8206",
".B c #fe8602",
".A c #fe8606",
".G c #fe8a02",
".y c #fe8a06",
".u c #fe9632",
".E c #fecea6",
"#m c #fed2b2",
".x c #fedaba",
".U c #fedebe",
"#f c #fee2c6",
".4 c #fee6ca",
".o c #feeaae",
"## c #feead2",
".Y c #fef2e2",
".8 c #fefefa",
"QtQt.#.#.#.a.a.b.b.c.c.d.e.f.f.g.g.h.iQt.j.k",
"QtQt.#.l.l.l.l.l.l.l.l.l.l.l.l.l.l.m.n.j.k.o",
"QtQt.p.l.q.q.q.q.q.q.r.q.q.q.q.q.q.s.j.t.o.u",
"QtQt.p.l.q.q.q.q.q.q.r.q.q.q.q.q.v.w.t.x.u.y",
"QtQt.p.l.q.q.q.q.q.q.r.q.q.q.q.q.z.t.x.u.A.B",
"QtQt.C.l.r.r.r.r.r.r.r.r.r.r.r.D.t.E.u.F.B.G",
"QtQt.C.l.q.q.q.q.q.q.r.q.q.q.H.t.E.u.A.B.I.J",
"QtQt.b.l.q.q.q.q.q.q.r.q.q.K.L.E.u.M.B.I.N.O",
"QtQt.b.l.q.q.q.q.q.q.r.q.P.Q.E.u.B.A.I.R.S.T",
"QtQt.c.l.r.r.r.r.r.r.r.P.U.V.W.M.B.I.N.S.TQt",
"QtQt.c.l.q.q.q.q.q.q.X.E.Y.Z.0.1.M.R.2.TQtQt",
"QtQt.c.l.q.q.q.q.q.3.P.4.x.W.5.6.7.2.TQtQtQt",
"QtQt.d.l.q.q.q.8.9#..E##.P#a#b.j#c.T#dQtQtQt",
"QtQt.e.l.r.r.r.X#e.P#f#g#a#h.j#i.T#j#dQtQtQt",
"QtQt.f.l.q.v.9#k#l#m.Z#n#h#i#o#p#q#r#dQtQtQt",
"QtQt#s.l.8.3#.#t#u#v#w#x#y#p#z#A#B#C#dQtQtQt",
"QtQt#s.l.9#k#D#E#u#F#G#H#I#J#K#L#M#N#OQtQtQt",
"QtQt.g.l#e#P#Q#u#o#R#E#S#T#U#V#W#X#Y.TQtQtQt",
"QtQt.g.l#D#D#Z#0#E#A#1#K#2#3#4#5#6#7#8QtQtQt",
"QtQt.h.l#t#9#Za.a#aaabacad#5#5#6aeafagQtQtQt",
"QtQtah.m.maiajakal#Vamanaoapaq#Y#7arasQtQtQt",
"QtQtasasasasasasasasasasasasasasasasasQtQtQt"};
