/* XPM */
static const char *rename_plus_xpm[]={
"22 22 150 2",
"Qt c None",
"at c #000000",
"ah c #040404",
"#9 c #090909",
".U c #0d0d0d",
"#P c #101010",
"#e c #171717",
"#p c #2e2a22",
"#G c #32261e",
"#q c #36322e",
"#S c #363232",
"#H c #422e26",
".n c #4f4f4f",
".i c #505050",
"#1 c #524636",
"ai c #535353",
".h c #545454",
"#I c #565252",
"#z c #5a4a3e",
"#j c #5a4e36",
".g c #5b5b5b",
"#t c #5f5f5f",
".f c #636363",
".e c #666666",
".d c #6b6b6b",
".c c #6e6e6e",
"#y c #724e3a",
"#v c #72664e",
".b c #767676",
"#k c #776a56",
".D c #787878",
"#T c #7e766b",
".a c #7e7e7e",
".p c #838383",
"#d c #864a1e",
".# c #868686",
"#2 c #877c6e",
"#s c #897960",
".j c #8e522a",
".x c #8e5e36",
"#r c #908674",
"#U c #908675",
".A c #92622e",
"#A c #938978",
"#J c #93897a",
"#i c #965a3a",
"#B c #998e7f",
".3 c #9a4606",
".E c #9a6636",
"#K c #9d9382",
".T c #9e4a06",
".P c #a24e06",
"#V c #a39882",
"#D c #a48f6f",
"ac c #a49985",
"#C c #ac9d85",
"#c c #ae6232",
"#L c #afa38e",
"#W c #b2a38b",
"am c #b2a690",
"ab c #b5a593",
"#w c #b68a6a",
"#O c #b69e7a",
"an c #b8a88c",
"#X c #b9a688",
".I c #ba7a3e",
"aa c #bbae9c",
"as c #bc9d70",
"al c #bcb19c",
"ag c #bd9f74",
"#8 c #bda177",
"ao c #bdaa8d",
"#Z c #bea37b",
"ar c #bea680",
"ap c #beaa89",
"aq c #bfa885",
"#Y c #bfab8d",
".r c #c00000",
"#M c #c0b29b",
".8 c #c25e12",
".L c #c28246",
"ak c #c3b9a6",
"aj c #c4bcac",
".t c #c5bfb1",
"#x c #c68662",
".m c #c6c1b6",
"#3 c #c8b79f",
"#R c #c9c6bf",
".l c #c9c9c9",
".O c #ca6206",
"#b c #ca825e",
"#F c #caae82",
".S c #ce6602",
"#o c #ce8266",
"#Q c #cfc9c2",
"#N c #d0ba9a",
"ad c #d3c1a8",
"#f c #d3ccc5",
".K c #d66a06",
".Y c #d6d6d3",
".s c #d6d6d6",
".6 c #da6e3e",
".M c #da924e",
"a# c #dacfbd",
"#4 c #dbcbb1",
"af c #dec6aa",
"ae c #e0c9ae",
".7 c #e26a2e",
".u c #e29a56",
"#7 c #e2caa2",
"#6 c #e4cca8",
"#5 c #e7cfb3",
".1 c #ea8e5a",
".X c #ea9a6e",
".R c #eeb276",
"#0 c #efe3d3",
".2 c #f27e0e",
"#h c #f2b296",
"a. c #f2eada",
"#u c #f4ece4",
".J c #f68606",
".Q c #f6b696",
".0 c #f6c6aa",
"#E c #f6eee2",
"#m c #f6f2e6",
".N c #fa820a",
".k c #faae5e",
".W c #fae6d2",
"## c #faf2ea",
"#l c #faf6ee",
".4 c #faf6f6",
"#. c #fafaf6",
".w c #fafafa",
".q c #fcfcfc",
".G c #fe8206",
".C c #fe8602",
".B c #fe8606",
".H c #fe8a02",
".z c #fe8a06",
".v c #fe9632",
".F c #fecea6",
"#n c #fed2b2",
".y c #fedaba",
".V c #fedebe",
"#g c #fee2c6",
".5 c #fee6ca",
".o c #feeaae",
"#a c #feead2",
".Z c #fef2e2",
".9 c #fefefa",
"QtQt.#.#.#.a.a.b.b.c.c.d.e.f.f.g.g.h.iQt.j.k",
"QtQt.#.l.l.l.l.l.l.l.l.l.l.l.l.l.l.m.n.j.k.o",
"QtQt.p.l.q.q.r.r.q.q.s.q.q.q.q.q.q.t.j.u.o.v",
"QtQt.p.l.q.q.r.r.q.q.s.q.q.q.q.q.w.x.u.y.v.z",
"QtQt.p.l.q.q.r.r.q.q.s.q.q.q.q.q.A.u.y.v.B.C",
"QtQt.D.r.r.r.r.r.r.r.r.s.s.s.s.E.u.F.v.G.C.H",
"QtQt.D.r.r.r.r.r.r.r.r.q.q.q.I.u.F.v.B.C.J.K",
"QtQt.b.l.q.q.r.r.q.q.s.q.q.L.M.F.v.N.C.J.O.P",
"QtQt.b.l.q.q.r.r.q.q.s.q.Q.R.F.v.C.B.J.S.T.U",
"QtQt.c.l.s.s.r.r.s.s.s.Q.V.W.X.N.C.J.O.T.UQt",
"QtQt.c.l.q.q.q.q.q.q.Y.F.Z.0.1.2.N.S.3.UQtQt",
"QtQt.c.l.q.q.q.q.q.4.Q.5.y.X.6.7.8.3.UQtQtQt",
"QtQt.d.l.q.q.q.9#.##.F#a.Q#b#c.j#d.U#eQtQtQt",
"QtQt.e.l.s.s.s.Y#f.Q#g#h#b#i.j#j.U#k#eQtQtQt",
"QtQt.f.l.q.w#.#l#m#n.0#o#i#j#p#q#r#s#eQtQtQt",
"QtQt#t.l.9.4###u#v#w#x#y#z#q#A#B#C#D#eQtQtQt",
"QtQt#t.l#.#l#E#F#v#G#H#I#J#K#L#M#N#O#PQtQtQt",
"QtQt.g.l#f#Q#R#v#p#S#F#T#U#V#W#X#Y#Z.UQtQtQt",
"QtQt.g.l#E#E#0#1#F#B#2#L#3#4#5#6#7#8#9QtQtQt",
"QtQt.h.l#ua.#0a#aaabacadae#6#6#7afagahQtQtQt",
"QtQtai.m.majakalam#Wanaoapaqar#Z#8asatQtQtQt",
"QtQtatatatatatatatatatatatatatatatatatQtQtQt"};
