/* XPM */
static const char *rename_small_xpm[]={
"18 18 84 2",
"Qt c None",
".6 c #1a1812",
".z c #1c0c01",
".H c #210f01",
".S c #303030",
".W c #332e23",
".X c #474544",
".1 c #4c392c",
".a c #534f4c",
".# c #585858",
".2 c #5b5957",
".R c #5c4733",
"#a c #736a5a",
".V c #825234",
".Q c #87542b",
".0 c #897862",
"#b c #9c9488",
".7 c #9f9c96",
".G c #a04a04",
".M c #a04b0a",
".b c #a36f52",
".u c #a54e04",
".3 c #b0b0af",
"#l c #bc9e73",
".5 c #bca178",
"#g c #bca37f",
"#q c #bca685",
".4 c #bca88a",
".Y c #bcab90",
"#r c #bda076",
"#c c #bdb4a4",
"#p c #c0af91",
"#o c #c2b39a",
".j c #c37b40",
"#n c #c4bdac",
".8 c #c4bfb9",
".U c #c67d5a",
".P c #c67e5d",
"#m c #c6c1b6",
".i c #cecece",
".n c #cf6524",
".L c #d37043",
".f c #d38f5d",
"## c #dac8ab",
".9 c #dad6d3",
".Z c #dcd0bf",
".d c #dedede",
".e c #dfdfdf",
".t c #e47604",
".F c #e47702",
"#k c #e5cca7",
".m c #e5d6c8",
"#f c #e7d1b0",
".q c #e7dacc",
"#. c #e9d6b9",
".D c #eb9260",
".I c #ebb698",
".p c #ec7a03",
"#e c #ecdabf",
".v c #ecdad2",
".A c #ededed",
"#d c #eedfc8",
".N c #efd0b5",
"#j c #f0e4d0",
".K c #f1b492",
"#i c #f2e8d8",
".B c #f4d6c1",
"#h c #f4ede1",
".T c #f7c9ac",
".w c #f8c58d",
".E c #fa800a",
".k c #fac689",
".o c #fac98f",
".c c #facb8d",
".r c #fd850c",
".x c #fe8406",
".s c #fe8703",
".l c #fe8801",
".y c #fe8804",
".g c #fe8f0c",
".J c #fee5ca",
".O c #ffd1b1",
".C c #ffe2cd",
".h c #ffffff",
"QtQt.#.#.#.#.#.#.#.#.#.#.#.a.b.cQtQt",
"QtQt.#.d.d.d.d.d.d.d.e.eQt.f.c.gQtQt",
"QtQt.#.d.h.h.h.d.h.h.h.i.j.k.g.lQtQt",
"QtQt.#.d.h.h.h.d.h.h.m.n.o.g.l.pQtQt",
"QtQt.#.d.d.d.d.d.h.q.j.o.r.s.t.uQtQt",
"QtQt.#.d.h.h.h.d.v.f.w.x.y.t.u.zQtQt",
"QtQt.#.d.h.h.h.A.B.C.D.E.F.G.HQtQtQt",
"QtQt.#.d.d.d.d.I.J.K.L.n.M.HQtQtQtQt",
"QtQt.#.d.h.h.v.N.O.P.Q.R.H.SQtQtQtQt",
"QtQt.#.d.h.h.I.T.U.V.W.X.Y.SQtQtQtQt",
"QtQt.#.d.d.Z.0.b.1.2.3.3.4.SQtQtQtQt",
"QtQt.#.d.A.5.6.a.7.8.9#..4.SQtQtQtQt",
"QtQt.#.e###a#b#c#d#e#.#f#g.SQtQtQtQt",
"QtQt.#.e#h#i#j#d#e#.#f#k#l.SQtQtQtQt",
"QtQt.#.8#m#n#o#o#p#p#q#r#l.SQtQtQtQt",
"QtQt.#.S.S.S.S.S.S.S.S.S.S.SQtQtQtQt",
"QtQtQtQtQtQtQtQtQtQtQtQtQtQtQtQtQtQt",
"QtQtQtQtQtQtQtQtQtQtQtQtQtQtQtQtQtQt"};
