/* XPM */
static const char * resume_small_xpm[] = {
"16 18 45 1",
" 	c None",
".	c #43546A",
"+	c #647685",
"@	c #778896",
"#	c #577D88",
"$	c #8CBBB9",
"%	c #748C95",
"&	c #4B7D86",
"*	c #7FC6BD",
"=	c #92BDB6",
"-	c #6E858F",
";	c #79C6B3",
">	c #95D2C1",
",	c #98C7BA",
"'	c #719196",
")	c #89CCB5",
"!	c #9ED3C1",
"~	c #A7D6C6",
"{	c #ACCDC4",
"]	c #6B888E",
"^	c #99D4B9",
"/	c #A1D6BE",
"(	c #AFDAC9",
"_	c #C4E3D9",
":	c #C7DED8",
"<	c #8FA1A8",
"[	c #A4DDC2",
"}	c #B4DFCA",
"|	c #CBE6DC",
"1	c #E2F1ED",
"2	c #BDDAD6",
"3	c #ACE3C5",
"4	c #B8E5CD",
"5	c #CBEADB",
"6	c #E4F3EB",
"7	c #C3E0DC",
"8	c #B7E8CB",
"9	c #CFEEDE",
"0	c #E3F4EB",
"a	c #C8E3DE",
"b	c #CDEEDA",
"c	c #E4F5EB",
"d	c #C7E2DE",
"e	c #CCE5E1",
"f	c #CBE4E1",
"                ",
"     .          ",
"     +.         ",
"     +@.        ",
"     #$%.       ",
"     &*=-.      ",
"     &;>,'.     ",
"     &)!~{].    ",
"     &^/(_:<'   ",
"     ]/[}|12'   ",
"     ]34567'    ",
"     &890a'     ",
"     'bcd'      ",
"     '0e'       ",
"     'f'        ",
"     ''         ",
"     '          ",
"                "};
