/* XPM */
static const char * save_xpm[] = {
"22 22 273 2",
"  	c None",
". 	c #BBBCCE",
"+ 	c #B6B7CB",
"@ 	c #BBBBCD",
"# 	c #ADAEC3",
"$ 	c #A5A7BE",
"% 	c #A2A3BB",
"& 	c #A7A7BE",
"* 	c #A3A3BB",
"= 	c #9D9DB6",
"- 	c #9999B3",
"; 	c #9494AF",
"> 	c #8F8FAC",
", 	c #8A8AA8",
"' 	c #8585A4",
") 	c #64688F",
"! 	c #4F527F",
"~ 	c #E1E5EC",
"{ 	c #E1E5ED",
"] 	c #FFFFFF",
"^ 	c #7F90AF",
"/ 	c #7082A6",
"( 	c #7E8FAF",
"_ 	c #B3BDD0",
": 	c #868EAC",
"< 	c #37386C",
"[ 	c #B4B5C9",
"} 	c #D7DDE6",
"| 	c #D8DDE7",
"1 	c #465E8C",
"2 	c #576C96",
"3 	c #7486A8",
"4 	c #A3AFC6",
"5 	c #848EAC",
"6 	c #353669",
"7 	c #AEB0C5",
"8 	c #D2D8E3",
"9 	c #D3D9E4",
"0 	c #586D97",
"a 	c #7F8FAF",
"b 	c #9AA7C0",
"c 	c #9DA9C2",
"d 	c #757FA0",
"e 	c #2E2F63",
"f 	c #A8AAC0",
"g 	c #CCD3DF",
"h 	c #CED4E1",
"i 	c #9FACC4",
"j 	c #B9C2D3",
"k 	c #CBD2DF",
"l 	c #FDFDFE",
"m 	c #8E9BB5",
"n 	c #666F92",
"o 	c #2A2B60",
"p 	c #A1A4BC",
"q 	c #C6CEDC",
"r 	c #C5CDDB",
"s 	c #EEF1F5",
"t 	c #EDF0F4",
"u 	c #ECEFF3",
"v 	c #EBEEF3",
"w 	c #EAEDF2",
"x 	c #E9ECF1",
"y 	c #E8EBF0",
"z 	c #E7EAF0",
"A 	c #E6E9EF",
"B 	c #E5E8EF",
"C 	c #E1E4EB",
"D 	c #D0D3DE",
"E 	c #7884A3",
"F 	c #5C668A",
"G 	c #26275C",
"H 	c #9B9EB8",
"I 	c #C1C9D9",
"J 	c #B7C1D2",
"K 	c #BAC3D4",
"L 	c #B5BFD1",
"M 	c #B1BBCE",
"N 	c #ADB8CC",
"O 	c #A8B4C9",
"P 	c #A4B0C7",
"Q 	c #A0ACC4",
"R 	c #9BA9C1",
"S 	c #95A3BD",
"T 	c #8D9AB6",
"U 	c #7F8BA9",
"V 	c #7480A0",
"W 	c #626F93",
"X 	c #545E84",
"Y 	c #222359",
"Z 	c #9498B3",
"` 	c #BBC4D4",
" .	c #AEB9CD",
"..	c #AAB5CA",
"+.	c #A5B1C7",
"@.	c #9BA8C1",
"#.	c #909EB9",
"$.	c #8897B4",
"%.	c #808FAE",
"&.	c #7382A2",
"*.	c #6A789A",
"=.	c #637194",
"-.	c #5C6A8F",
";.	c #566489",
">.	c #4C567C",
",.	c #1F2056",
"'.	c #8F92AF",
").	c #ACB7CB",
"!.	c #B4BED0",
"~.	c #B0BBCE",
"{.	c #A6B1C7",
"].	c #9CA7BF",
"^.	c #939FB9",
"/.	c #8A96B1",
"(.	c #838EAB",
"_.	c #7B87A5",
":.	c #7581A0",
"<.	c #6F7A9B",
"[.	c #687496",
"}.	c #526186",
"|.	c #454F76",
"1.	c #1C1D54",
"2.	c #888CAA",
"3.	c #AFBACD",
"4.	c #FDFDFD",
"5.	c #F4F4F7",
"6.	c #EBEBF0",
"7.	c #E4E4EB",
"8.	c #DFDFE7",
"9.	c #D9D9E3",
"0.	c #D4D4DF",
"a.	c #CECEDA",
"b.	c #C8C8D6",
"c.	c #C2C2D2",
"d.	c #BCBCCE",
"e.	c #5C678B",
"f.	c #3D466F",
"g.	c #181950",
"h.	c #8286A6",
"i.	c #FBFBFC",
"j.	c #F2F2F5",
"k.	c #E9E9EF",
"l.	c #DDDDE6",
"m.	c #D8D8E2",
"n.	c #D2D2DE",
"o.	c #CDCDDA",
"p.	c #C7C7D6",
"q.	c #BCBCCD",
"r.	c #B6B6C9",
"s.	c #556185",
"t.	c #37406A",
"u.	c #15164D",
"v.	c #7B7FA1",
"w.	c #A6B0C6",
"x.	c #DCDCE9",
"y.	c #C4C4DB",
"z.	c #BFBFD7",
"A.	c #BBBBD4",
"B.	c #B6B6CF",
"C.	c #B1B1CC",
"D.	c #ACACC7",
"E.	c #A8A8C4",
"F.	c #A2A2C0",
"G.	c #9E9EBC",
"H.	c #9999B8",
"I.	c #A1A1BC",
"J.	c #4E597F",
"K.	c #303A63",
"L.	c #12134A",
"M.	c #757A9D",
"N.	c #99A4BD",
"O.	c #DDDDE8",
"P.	c #CFCFDF",
"Q.	c #C9C9DB",
"R.	c #C4C4D7",
"S.	c #BFBFD3",
"T.	c #BABACF",
"U.	c #B4B4CB",
"V.	c #B0B0C7",
"W.	c #AAAAC3",
"X.	c #A5A5BF",
"Y.	c #9F9FBB",
"Z.	c #A1A1BA",
"`.	c #485379",
" +	c #2A345E",
".+	c #101148",
"++	c #6E7398",
"@+	c #919EB8",
"#+	c #8E9AB4",
"$+	c #D1D1E0",
"%+	c #BFBFD5",
"&+	c #BBBBD1",
"*+	c #B6B6CD",
"=+	c #B0B0C9",
"-+	c #ACACC6",
";+	c #A6A6C1",
">+	c #A2A2BE",
",+	c #9C9CB9",
"'+	c #9797B6",
")+	c #9292B2",
"!+	c #9797B3",
"~+	c #414D73",
"{+	c #242E58",
"]+	c #0D0E45",
"^+	c #666A91",
"/+	c #8693AF",
"(+	c #8591AD",
"_+	c #CCCCDC",
":+	c #BDBDD2",
"<+	c #B8B8CE",
"[+	c #B3B3CA",
"}+	c #ADADC6",
"|+	c #A9A9C3",
"1+	c #A3A3BE",
"2+	c #9E9EBB",
"3+	c #9999B6",
"4+	c #9595B2",
"5+	c #8F8FAF",
"6+	c #9292AF",
"7+	c #3B476E",
"8+	c #1F2952",
"9+	c #0B0C43",
"0+	c #5D628A",
"a+	c #7D8AA8",
"b+	c #7D88A7",
"c+	c #C8C8D8",
"d+	c #BCBCD0",
"e+	c #B6B6CC",
"f+	c #B1B1C8",
"g+	c #ACACC4",
"h+	c #A7A7C0",
"i+	c #9C9CB8",
"j+	c #9797B4",
"k+	c #9292B0",
"l+	c #8D8DAC",
"m+	c #8D8DAB",
"n+	c #364168",
"o+	c #1A234D",
"p+	c #090A40",
"q+	c #545782",
"r+	c #727A9B",
"s+	c #6F7797",
"t+	c #BCBCC9",
"u+	c #B6B6C5",
"v+	c #B1B1C1",
"w+	c #ACACBD",
"x+	c #A6A6B9",
"y+	c #A1A1B6",
"z+	c #9C9CB1",
"A+	c #9797AE",
"B+	c #9292A9",
"C+	c #8D8DA6",
"D+	c #8787A2",
"E+	c #82829E",
"F+	c #2B345A",
"G+	c #131942",
"H+	c #07073E",
"I+	c #39396B",
"J+	c #313264",
"K+	c #4B4B74",
"L+	c #484873",
"M+	c #464671",
"N+	c #44446F",
"O+	c #41416E",
"P+	c #40406C",
"Q+	c #3D3D6B",
"R+	c #3B3B69",
"S+	c #393968",
"T+	c #373766",
"U+	c #353564",
"V+	c #333363",
"W+	c #101045",
"X+	c #06073D",
"                                            ",
"                                            ",
"      . + @ # $ % & * = - ; > , ' ) !       ",
"    . ~ { ] ^ / ( ] ] ] ] ] ] ] ] _ : <     ",
"    [ } | ] 1 2 3 ] ] ] ] ] ] ] ] 4 5 6     ",
"    7 8 9 ] 0 a b ] ] ] ] ] ] ] ] c d e     ",
"    f g h ] i j k ] ] ] ] ] ] ] l m n o     ",
"    p q r s t u v w x y z A B C D E F G     ",
"    H I J K L M N O P Q R S T U V W X Y     ",
"    Z `  ...+.Q @.S #.$.%.&.*.=.-.;.>.,.    ",
"    '.L ).!.~.).{.].^./.(._.:.<.[.}.|.1.    ",
"    2.3.!.] 4.5.6.7.8.9.0.a.b.c.d.e.f.g.    ",
"    h...3.i.j.k.7.l.m.n.o.p.c.q.r.s.t.u.    ",
"    v.P w.x.y.z.A.B.C.D.E.F.G.H.I.J.K.L.    ",
"    M.c N.O.P.Q.R.S.T.U.V.W.X.Y.Z.`. +.+    ",
"    ++@+#+$+%+&+*+=+-+;+>+,+'+)+!+~+{+]+    ",
"    ^+/+(+_+:+<+[+}+|+1+2+3+4+5+6+7+8+9+    ",
"    0+a+b+c+d+e+f+g+h+I.i+j+k+l+m+n+o+p+    ",
"    q+r+s+t+u+v+w+x+y+z+A+B+C+D+E+F+G+H+    ",
"      I+J+K+L+M+N+O+P+Q+R+S+T+U+V+W+X+      ",
"                                            ",
"                                            "};
