/* XPM */
static const char *searching_xpm[]={
"22 22 122 2",
"Qt c None",
"#x c #000000",
"#. c #0c0c0c",
".j c #1d1d1d",
"#h c #232323",
".K c #29292a",
"#1 c #323233",
"#X c #363637",
"#W c #373738",
"#n c #398491",
"#Z c #3a3f40",
".a c #3b3b3c",
"#e c #3d8996",
".b c #3e3e3f",
"#p c #404647",
"#Q c #414748",
"#m c #4298a7",
".u c #434343",
".8 c #4399a8",
".2 c #444444",
".l c #444445",
"#u c #4496a5",
"#d c #449aa9",
".k c #474747",
"#o c #489ead",
".d c #49494a",
".v c #4c4c4d",
"#l c #4cb7cb",
"#c c #4dbace",
"#T c #4f4f4f",
"#v c #50a3b5",
".Z c #50a6b9",
"#t c #52a7b3",
".9 c #54acb9",
".# c #59595a",
".7 c #5bb1c4",
"#z c #5c5c5c",
".c c #5d5d5e",
".T c #626262",
"#M c #635920",
"#f c #63b5c4",
"#U c #686868",
"#k c #68bdcf",
".0 c #6ab5c3",
".t c #6b7274",
"#i c #6c6d6c",
".Q c #6cbacb",
".Y c #6cc3d9",
"#G c #6d6d6d",
"#2 c #6f6f70",
"#P c #727273",
"#S c #737374",
"#N c #747475",
".6 c #74c8dd",
"#O c #757576",
"#j c #78c3d3",
"#H c #79989c",
"#s c #79bfcc",
".i c #7b7879",
"#A c #7b7c7b",
".R c #7bc4d4",
".w c #7d7e7d",
"#3 c #7f7f80",
".I c #81c9d6",
".e c #868787",
".X c #86d1e1",
"#D c #87cad6",
"#E c #87cddc",
"#K c #88a8ad",
".H c #8acdd9",
"#w c #8acfe1",
"#y c #8e8e8e",
"#V c #928237",
".W c #96d7e7",
"#C c #99d4e0",
".P c #99d8e6",
".C c #9bd6e2",
".S c #9da2a1",
".G c #9dd9e6",
".L c #a2a7a7",
"#r c #a4dbe9",
".B c #a5dcea",
"## c #a6abaa",
".5 c #a8e1eb",
"#I c #a9c7ce",
"#g c #abdfea",
"#F c #ac993f",
".f c #afb4b4",
".O c #afe1ec",
"#b c #b1dbe4",
".F c #b1e2ec",
".h c #b2b7b7",
".1 c #b2c7cb",
"#J c #b3cad0",
".U c #bababa",
"#B c #bae4ef",
".g c #bbc4c6",
".D c #bbe7ee",
"#R c #bda44c",
".A c #bde7f0",
".N c #c3e9f0",
".E c #c5cfd2",
".4 c #c5e7ec",
".z c #c6edf5",
".V c #cbe9f2",
".r c #cceff7",
"#0 c #cecece",
".J c #ced9d9",
".m c #cfdada",
"#q c #d7f0f4",
".q c #d7f3f8",
"#a c #d8edf1",
".s c #dce7e9",
".o c #dcf2f5",
".p c #ddf4fa",
"#L c #dece9d",
"#Y c #e1e1e1",
".3 c #e3f2f4",
".n c #e5f0f2",
".M c #e5f4f8",
".x c #e9f8fa",
".y c #ffffff",
"QtQtQtQtQt.#.a.b.b.b.#QtQtQtQtQtQtQtQtQtQtQt",
"QtQtQt.c.d.e.f.g.g.h.i.j.kQtQtQtQtQtQtQtQtQt",
"QtQt.l.i.m.n.o.p.q.r.p.s.t.uQtQtQtQtQtQtQtQt",
"Qt.v.w.s.x.y.x.z.A.B.C.D.s.w.lQtQtQtQtQtQtQt",
"Qt.d.E.x.y.y.y.x.F.G.H.I.F.J.KQtQtQtQtQtQtQt",
".c.L.s.o.M.y.x.N.O.P.H.Q.R.F.S.TQtQtQtQtQtQt",
".d.U.M.V.V.x.N.O.W.X.Y.Z.0.F.1.2QtQtQtQtQtQt",
".d.g.3.4.D.F.5.W.X.6.7.8.9.5.1#.QtQtQtQtQtQt",
".u###a#b.C.P.W.X.6#c#d#e#f#g.L#hQtQtQtQtQtQt",
"#i.w.m.O.H.I#j#k#l#m#n#o.W.J#p.kQtQtQtQtQtQt",
"Qt.d.i#q#r#s#f#t#u#e#v#w#a.S#xQtQtQtQtQtQtQt",
"Qt#y#z#A#a#B#C#D#j#E.D#a.w#p#x#FQtQtQtQtQtQt",
"QtQt.##G#A#H#I.4.4#J#K.t#p#x.y#L#MQtQtQtQtQt",
"QtQtQt.c.v.##N#O#P#P#Q#p#x#R#L.y#S.bQtQtQtQt",
"QtQtQtQtQt#P.v#T.d.d#UQt#M#V#Q#O.y#O#WQtQtQt",
"QtQtQtQtQtQtQtQtQtQtQtQtQt#M#X#Q.i#Y.i.aQtQt",
"QtQtQtQtQtQtQtQtQtQtQtQtQtQt#W#W#Z#P#0#G#1Qt",
"QtQtQtQtQtQtQtQtQtQtQtQtQtQtQt#x#W#Q#P#0#2.b",
"QtQtQtQtQtQtQtQtQtQtQtQtQtQtQtQt#1#X#Q#P#3#Z",
"QtQtQtQtQtQtQtQtQtQtQtQtQtQtQtQtQt#x#W#Q#.#Z",
"QtQtQtQtQtQtQtQtQtQtQtQtQtQtQtQtQtQt#x#x.uQt",
"QtQtQtQtQtQtQtQtQtQtQtQtQtQtQtQtQtQtQtQtQtQt"};
