/* XPM */
static const char *searching_small_xpm[]={
"18 18 121 2",
"Qt c None",
"#Z c #0b0b0b",
"#q c #10131b",
"#0 c #171717",
"#y c #1a1910",
"#X c #212222",
"#1 c #232323",
"#W c #282729",
"#2 c #2b2b2b",
"#P c #2f2f32",
"#T c #323232",
".6 c #353635",
"#M c #393e44",
".3 c #398491",
"#Q c #3a3f40",
".E c #3d3b3c",
".b c #3e3e3f",
"#g c #3f99a8",
"#E c #414141",
"#U c #434748",
"#b c #4398a6",
".W c #449bae",
".v c #454545",
"#j c #474648",
"#x c #494e52",
"#S c #4a494b",
".c c #4d5152",
"#L c #504c2d",
".l c #504f4e",
".2 c #51a9bc",
".a c #525152",
"#Y c #535455",
".k c #545556",
"#s c #564b15",
"#F c #595657",
".d c #5b5d5e",
".# c #5d5d5e",
"#D c #5f5c5d",
"#G c #5f5f60",
".w c #626467",
"#B c #635920",
"#K c #64581b",
"#l c #64615f",
".M c #65b7c8",
".7 c #666666",
".F c #686969",
"#a c #68c4d8",
".D c #6a6968",
"#C c #6b6969",
".e c #6b6d6e",
"#t c #6b7d7f",
".V c #6bc3da",
".1 c #6ccade",
"#f c #71becb",
".4 c #75c7d4",
"#w c #768c8f",
".P c #787675",
"#k c #7d7d7c",
".X c #7ec7d4",
"## c #80c9d9",
"#. c #87cddb",
".L c #89d3e4",
".A c #8bcedc",
".m c #8f8f8f",
".9 c #92d3e0",
"#h c #92d9ec",
"#o c #94d8e7",
".N c #94d8e8",
"#R c #979698",
".B c #98d8e4",
".u c #9a9999",
"#d c #9ba6a9",
".U c #9cdbe8",
".K c #9fdbe8",
"#H c #a0a0a0",
"#V c #a1a1a2",
".z c #a1dbe8",
"#r c #a39243",
"#I c #a3965a",
"#n c #a3dde8",
"#u c #a5b6bb",
".0 c #a5ddea",
"#c c #a7e0ec",
"#N c #a8a8aa",
".f c #adb2b2",
".j c #adbabd",
".Z c #aedfe7",
"#J c #b2b2b3",
".O c #b2c9cc",
".r c #b3eaf7",
".T c #b5e3ee",
"#v c #b8cbcd",
"#e c #bacbcc",
".J c #bae5ee",
".G c #bcc3c3",
"#z c #bda44c",
".5 c #c1e1e7",
".s c #c2f1fb",
"#O c #c3c3c3",
".R c #c3e6f1",
"#m c #c5cdce",
".Y c #c7eaf2",
".8 c #c9ecf3",
".C c #cee9ed",
".q c #cff3fc",
".g c #d1dbdd",
"#p c #d1dfe2",
".y c #d2eff4",
".h c #d8e8eb",
".x c #dae7e9",
".t c #daf3f6",
".i c #dbe3e5",
".n c #dceaeb",
".S c #dcf3f7",
".Q c #dcf4fb",
"#i c #def0f1",
".I c #e2f4f9",
".p c #e2fbff",
".H c #e4f7f9",
".o c #feffff",
"#A c #fffff3",
"QtQtQtQt.#.a.b.c.dQtQtQtQtQtQtQtQtQt",
"QtQt.#.e.f.g.h.i.j.k.lQtQtQtQtQtQtQt",
"Qt.a.m.n.o.p.q.r.s.t.u.vQtQtQtQtQtQt",
"Qt.w.x.o.o.o.y.z.A.B.C.D.EQtQtQtQtQt",
".F.G.H.I.o.H.J.K.L.M.N.O.PQtQtQtQtQt",
".b.i.Q.R.S.T.U.L.V.W.X.Y.vQtQtQtQtQt",
".b.g.y.Z.0.U.L.1.2.3.4.5.6QtQtQtQtQt",
".7.f.8.9#.###a.2.3#b#c#d.vQtQtQtQtQt",
"Qt.b#e.r#f.2#g.3.3#h#i#jQtQtQtQtQtQt",
"Qt#k#l#m.J#n#o#o.s#p.c#q#r#sQtQtQtQt",
"QtQt#l.b#t#u#v.j#w#x#y#z#A#BQtQtQtQt",
"QtQtQtQt#C#D#E#F#G#H#B#I#J.o.bQtQtQt",
"QtQtQtQtQtQtQtQtQtQt#K#L#M#N#O.bQtQt",
"QtQtQtQtQtQtQtQtQtQtQt.6#P#Q#R#J#SQt",
"QtQtQtQtQtQtQtQtQtQtQtQtQt#T#U.u#V.b",
"QtQtQtQtQtQtQtQtQtQtQtQtQt#W#X.c#Y#Z",
"QtQtQtQtQtQtQtQtQtQtQtQtQtQtQt#0#1#2",
"QtQtQtQtQtQtQtQtQtQtQtQtQtQtQtQtQtQt"};
