/* XPM */
static const char *shared_files_xpm[] = {
/* columns rows colors chars-per-pixel */
"22 22 83 1",
"  c black",
". c #262870",
"X c #2D2F75",
"o c #333579",
"O c #35378D",
"+ c #3D3F83",
"@ c #30429F",
"# c #036EFF",
"$ c #0374FF",
"% c #1B77F3",
"& c #187FFF",
"* c #206ADE",
"= c #484B8C",
"- c #4B4D8F",
"; c #4E4F90",
": c #555795",
"> c #5E7587",
", c #6572A1",
"< c #727EB0",
"1 c #3395FF",
"2 c #6B81AE",
"3 c #7392AB",
"4 c #49B0FF",
"5 c #50B4FF",
"6 c #5BB4FE",
"7 c #62BEFE",
"8 c #67BDFF",
"9 c #6AC1FE",
"0 c #6DC1FE",
"q c #6CC2FE",
"w c #6EC3FE",
"e c #6EC6FE",
"r c #88A8C0",
"t c #93B1C7",
"y c #9DB9CD",
"u c #A1BACD",
"i c #87CFFE",
"p c #8FD2FE",
"a c #97D4FF",
"s c #99D5FF",
"d c #9CD8FE",
"f c #9ED9FE",
"g c #A2DAFE",
"h c #AEDFFF",
"j c #B1E0FF",
"k c #BEE8FE",
"l c #C1E8FF",
"z c #C3EAFF",
"x c #C3EDFF",
"c c #C5E9FF",
"v c #C6E9FF",
"b c #CBEBFE",
"n c #CCECFF",
"m c #D3EFFF",
"M c #DBEAF3",
"N c #D7F3FF",
"B c #DDF2FF",
"V c #DDF3FF",
"C c #DDF4FF",
"Z c #E0F4FF",
"A c #E0F7FE",
"S c #E2F7FE",
"D c #E5F7FF",
"F c #E7F6FF",
"G c #E7F9FD",
"H c #EBF0F4",
"J c #E8F6FF",
"K c #ECF7FF",
"L c #E8F9FE",
"P c #E8FAFE",
"I c #E9FAFF",
"U c #EAF8FF",
"Y c #EEF9FF",
"T c #EEFAFF",
"R c #EFFAFF",
"E c #EEFDFD",
"W c #F3F3F3",
"Q c #F4F4F4",
"! c #F1F9FF",
"~ c #F1FAFF",
"^ c gray98",
"/ c gray100",
"( c None",
/* pixels */
"((((((((((((((((((((((",
"((((((((((((((((((((((",
"((((((((((((((((((((((",
"(((rrrrr((((((((((((((",
"((r/WWQQrrrrrrrrrrr(((",
"((r^^^^Q3>>>>>>>>>>O((",
"((rrrrr3>yyyyyyyyyyyy2",
"((r>>>>>yrrrr///GIIIbO",
"((r>yyyyrrrr!R!!Cxd01O",
"((r>yrrrrrr!R/!!Slde$O",
"((r>yrrR/R/!/R!!Svd9&O",
"((r>yrrRR/R/R/RRBld9&O",
"((r>yrrR/R/R/RRDCvg0%O",
"((r>yruRR/R/RRDBvhp6*O",
"((r>yrHR/R/RRFZnji81@(",
"((r>ytR/R/!/FDNlse5#O(",
"((r>yM/R/RREGmka74$O((",
"(((<,:;;;;;-=+oX...(((",
"((((((((((((((((((((((",
"((((((((((((((((((((((",
"((((((((((((((((((((((",
"(((((((((((((((((((((("
};
