/* XPM */
static const char *share_small_xpm[]={
"17 18 89 2",
"Qt c None",
".f c #000000",
"#w c #191809",
".z c #1c1a0a",
".o c #1d1b0c",
".U c #1f1d0d",
".p c #211e0a",
".4 c #221f0e",
".7 c #23210e",
"#f c #262410",
".m c #2a260e",
".c c #303030",
".l c #463f12",
"#v c #48452b",
".k c #494314",
"#p c #49451f",
".j c #4e4619",
".i c #4f481a",
"#u c #565437",
".# c #585858",
".J c #595856",
".8 c #5a5a5a",
"#t c #5b5943",
".h c #5c5323",
".y c #5c5623",
".x c #5e582c",
"#o c #615a29",
".w c #615e42",
"#s c #63614a",
".g c #645c29",
"#g c #645c2b",
"#c c #66602d",
"#q c #666354",
".T c #6a6335",
"#r c #6b6a53",
".q c #6e672e",
".3 c #726c4a",
".s c #766f38",
".r c #797030",
".e c #808080",
".t c #827d4f",
"#n c #867e47",
".n c #878788",
".S c #8a8454",
".u c #8b8661",
".I c #90884e",
".2 c #93928c",
".v c #94907b",
"#m c #958e58",
".R c #9a925d",
".A c #9e9858",
".b c #a0a0a0",
"#l c #a49d68",
"#b c #a4a4a4",
".H c #a59e60",
"#e c #a6a6a6",
".Q c #a8a26d",
".5 c #aeaeaf",
".K c #afab8a",
".1 c #afafaf",
".V c #b2b2b2",
"#k c #b3ac79",
"#a c #b5b5b5",
".P c #b6b07c",
".G c #bdb785",
".0 c #c0c0c0",
"#j c #c1bc8a",
".d c #c3c3c3",
".O c #c4be8c",
"## c #c4c4c4",
".F c #cbc69c",
".N c #d0cc9b",
".Z c #d0d0d0",
"#. c #d3d3d3",
"#d c #d4d4d4",
".E c #d5d1a9",
".C c #dad6a3",
".D c #dbd6aa",
".a c #dcdcdc",
"#i c #dfdbab",
".M c #dfdbac",
".B c #dfdbb3",
".Y c #e0e0e0",
".6 c #e3e3e3",
".9 c #e4e4e4",
".X c #ececec",
"#h c #eeeccf",
".L c #f0eed5",
".W c #f4f4f4",
"QtQtQtQtQtQtQtQtQt.#.#.#.#QtQtQtQt",
"QtQtQtQtQtQtQtQt.#.a.b.b.b.cQtQtQt",
"QtQtQtQtQtQtQt.#.d.#.c.c.#.b.#QtQt",
"QtQtQtQtQtQtQt.#.b.cQtQt.#.e.cQtQt",
"QtQtQtQtQtQtQt.#.e.cQtQt.#.e.cQtQt",
"QtQtQtQtQtQtQt.#.#.fQtQt.#.#.fQtQt",
"Qt.g.h.i.j.k.l.m.n.o.pQtQt.cQtQtQt",
".q.r.s.t.u.v.v.u.w.x.y.zQtQtQtQtQt",
".q.A.B.C.D.E.F.G.H.I.g.oQtQtQtQtQt",
".J.K.L.M.N.O.P.Q.R.S.T.UQtQtQtQtQt",
".#.V.W.X.Y.Z.0.1.b.2.3.4QtQtQtQtQt",
".#.5.W.X.6.Z.d.V.b.2.3.7QtQtQtQtQt",
".8.1.W.X.9#.###a#b.2.3.7QtQtQtQtQt",
"#c.5.W.X.9#d###a#e.2.3#fQtQtQtQtQt",
"#g.H#h#i.N#j#k#l#m#n#o.pQtQtQtQtQt",
"Qt#p#q#r#s#t#u.h#v.c#wQtQtQtQtQtQt",
"QtQtQtQtQtQtQtQtQtQtQtQtQtQtQtQtQt",
"QtQtQtQtQtQtQtQtQtQtQtQtQtQtQtQtQt"};
