/* XPM */
static const char *upload_small_xpm[]={
"17 16 47 1",
". c None",
"F c #000000",
"A c #000203",
"x c #050d1c",
"j c #061327",
"t c #061329",
"S c #06172b",
"e c #071830",
"a c #090f1e",
"R c #091528",
"K c #09213a",
"w c #0d81be",
"q c #0d8ac4",
"E c #0f4f7c",
"y c #104873",
"H c #1183b8",
"# c #12416d",
"u c #12426b",
"s c #124875",
"h c #127cb3",
"Q c #13729e",
"i c #144a77",
"d c #144f79",
"b c #154a72",
"D c #1586ba",
"N c #177baa",
"f c #1a4169",
"n c #1b466e",
"p c #1c91c1",
"z c #1f314e",
"J c #2282af",
"C c #22a4cf",
"L c #298ab2",
"M c #2bb2d4",
"m c #3bc3e0",
"I c #42c5dd",
"r c #47cce8",
"P c #579fc4",
"l c #58b3d9",
"o c #70c3df",
"O c #7fb7da",
"c c #8097b9",
"B c #9cd5ed",
"G c #cce6f5",
"g c #dcebf7",
"v c #e1ecf8",
"k c #fcfbfc",
".................",
".................",
".................",
"........#a.......",
".......bcde......",
"......fcghij.....",
".....fcklmhdj....",
"....nckopqrhst...",
"...ucvlpqwqmpsx..",
"..yzAAuBwCDEFFFF.",
"......yGHIJK.....",
"......ykHILK.....",
"......yGHMNK.....",
"......yOPCQF.....",
"......yReSFF.....",
"................."};
