/* XPM */
static const char *warning_small_xpm[] = {
/* columns rows colors chars-per-pixel */
"16 16 12 1",
"  c black",
". c #2F2F2F",
"X c gray19",
"o c #32402E",
"O c #656429",
"+ c gray33",
"@ c #706E67",
"# c #0028D5",
"$ c red",
"% c #A9A9A9",
"& c gray100",
"* c None",
/* pixels */
"******   *******",
"***** $$$ ******",
"***** $$$ ******",
"***** $$$ ******",
"***** $$$ ******",
"***** $$$ ******",
"***** $$$ ******",
"***** $$$ ******",
"*****  $  ******",
"******   *******",
"****************",
"******   *******",
"***** $$$ ******",
"***** $$$ ******",
"***** $$$ ******",
"******   *******"
};
