/* XPM */
static const char *windows_xpm[]={
"16 14 165 2",
"#w c #2a42bb",
"a. c #2c4cc3",
"#W c #3060cf",
"#J c #3674d8",
"#K c #3b46b5",
"#v c #3d86e0",
"#9 c #4489de",
"#V c #4d9aea",
"#h c #539ae5",
"#6 c #5a9de7",
"#I c #5ca4ee",
"#s c #63a6ed",
".V c #64b015",
".H c #68ab1a",
".9 c #68bc16",
"#S c #6ba7e7",
"#u c #6bacf0",
"#l c #6cc816",
".I c #6dd016",
"#X c #7070bb",
"#b c #71d419",
".W c #73d916",
"#8 c #74a0df",
"am c #767cc5",
".Z c #78e216",
"#. c #7ae016",
"#g c #7cb5f1",
"#G c #7db7f3",
"#i c #7e95d5",
".L c #80e516",
"#k c #82b43b",
"#p c #82c938",
"#m c #82e416",
"#U c #83baf4",
".J c #85e616",
"#o c #86e717",
".t c #88b943",
".X c #8be917",
"#a c #8fea19",
"#H c #90c2f6",
".M c #90c752",
"#7 c #91b7e9",
"## c #91eb19",
"#T c #93c4f6",
".Y c #95ec1b",
".y c #97d256",
"#n c #97ec1c",
"#e c #98bfea",
"#F c #98c1ec",
".K c #98ec1c",
"#t c #9ac9f8",
".u c #9ad35a",
".8 c #9bc25e",
"#f c #a2caf4",
"#A c #a8d75a",
"a# c #a9a0b5",
"#B c #add75d",
".0 c #b1c688",
"ai c #b4b7d5",
"#C c #b6d06b",
"#z c #bbd884",
".U c #c2c887",
".x c #c5ee8f",
"#x c #c9bdb5",
"#r c #cddff2",
"al c #cecde2",
".v c #cff0a5",
"#D c #d8d5b2",
"#c c #d8d9c5",
"an c #dabe8e",
".G c #dca487",
".w c #dcf3b5",
"aj c #ddd8e3",
".4 c #dfb89a",
"at c #e0c47d",
"#j c #e1d5d5",
"ah c #e3eaf2",
".7 c #e45140",
".5 c #e4ad8f",
"#L c #e4be74",
"aC c #e4d5be",
"#y c #e5d08d",
".k c #e64d3c",
"aa c #e69c0e",
"#Y c #e6ab37",
"ax c #e6b232",
"#R c #e6d6ab",
".s c #e7695b",
".3 c #e7aa71",
"af c #e7c044",
"aG c #e7d8b5",
"ak c #e8e4e8",
"#5 c #e8f2f8",
"ao c #eaa007",
"aH c #eadcc7",
"#4 c #eae3d9",
"#M c #eba408",
"ab c #ebb108",
"aB c #ebc32d",
".T c #ec1f0c",
".6 c #ec6e46",
"#Z c #ecab07",
"ap c #ecb908",
"#3 c #ecc013",
".2 c #edaf85",
"aF c #ede2ca",
"#N c #eec41f",
"aI c #eee9e4",
"#q c #eeece8",
"ay c #efc109",
"aw c #f2e6c4",
"ag c #f2efed",
".l c #f2f7e8",
".n c #f3954c",
".d c #f3b297",
"#0 c #f3c607",
".f c #f4b68a",
".O c #f4c7a8",
"#Q c #f4ca0e",
".N c #f4f3f0",
".F c #f52106",
".c c #f6a773",
".B c #f78a29",
"as c #f7cc0b",
"ac c #f7cc0c",
".a c #f7ddb8",
".z c #f7f8f4",
"#d c #f7fbfb",
"aA c #f8d331",
"#O c #f8db50",
".A c #f8ede3",
"aE c #f8f7f3",
"#E c #f8f8f7",
".r c #f92b06",
".b c #f9cd88",
"ae c #f9d016",
"#P c #f9dc54",
"aD c #f9fbf9",
".i c #fa6215",
".R c #fa6a18",
".D c #fa7d1f",
".p c #fa8f26",
".P c #fa9828",
".h c #fa9e2a",
".g c #fa9f2b",
".Q c #faa42d",
".o c #faaa2f",
".C c #faab2e",
"aq c #fad015",
".e c #faf3ef",
".# c #faf9f4",
"au c #fafbf9",
"az c #fbd421",
"#2 c #fbd628",
".1 c #fbfcfa",
"av c #fbfdfb",
".j c #fc3707",
".S c #fc3d08",
".q c #fc530e",
".m c #fcfefb",
"Qt c #fcfefc",
".E c #fd470a",
"#1 c #fdd72a",
"ad c #fdda37",
"ar c #fddb3c",
"QtQtQt.#.a.b.c.d.eQtQtQtQtQtQtQt",
"QtQtQt.f.g.h.i.j.k.l.mQtQtQtQtQt",
"QtQt.m.n.o.p.q.r.s.t.u.v.w.x.y.z",
"QtQt.A.B.C.D.E.F.G.H.I.J.K.L.M.N",
"QtQt.O.P.Q.R.S.T.U.V.W.X.Y.Z.0.1",
"QtQt.2.3.4.5.6.7.8.9#.###a#b#cQt",
"Qt#d#e#f#g#h#i#j#k#l#m#n#o#p#qQt",
"Qt#r#s#t#u#v#w#x#y#z#A#B#C#D#EQt",
"Qt#F#G#H#I#J#K#L#M#N#O#P#Q#RQtQt",
"Qt#S#T#U#V#W#X#Y#Z#0#1#2#3#4QtQt",
"#5#6#7#8#9a.a#aaabacadaeafagQtQt",
"ahaiajakalamanaoapaqarasatauQtQt",
"QtQtQtQtQtavawaxayazaAaBaCQtQtQt",
"QtQtQtaDQtQtQtaEaFaGaHaI#EQtQtQt"};
